<svg xmlns="http://www.w3.org/2000/svg" width="188.976" height="188.976" viewBox="0 0 5000 5000"
  preserveAspectRatio="xMidYMid" fill-rule="evenodd" stroke-width="28.222" stroke-linejoin="round">
  <defs>
    <clipPath id="A">
      <path d="M0 0h5000v5000H0z" />
    </clipPath>
  </defs>
  <g clip-path="url(#A)">
    <defs>
      <mask id="B">
        <path d="M-500-499h5980v5978H-500V-499z" fill="url(#C)" />
      </mask>
      <linearGradient id="C" x1="2490" y1="-499" x2="2490" y2="5479" gradientUnits="userSpaceOnUse">
        <stop offset=".5" stop-color="#a6a6a6" />
      </linearGradient>
    </defs>
    <g mask="url(#B)">
      <path fill="none" stroke="#000" stroke-width="1000"
        d="M0 4979c128-263 295-463 458-662 146-181 290-373 442-536 139-151 265-335 411-468 130-120 256-257 392-362 113-88 214-205 328-278 87-55 167-137 248-207 82-70 170-135 245-227 30-37 66-69 104-94 75-48 143-111 219-156 119-73 229-188 345-272 90-67 183-132 272-203 97-76 191-168 289-240 124-89 227-234 340-348 63-63 120-143 184-207 49-49 103-92 152-144 58-60 111-136 171-185 43-39 88-74 132-112 65-58 123-137 186-204l33-42 29-31" />
    </g>
  </g>
</svg>
