<svg xmlns="http://www.w3.org/2000/svg" width="188.976" height="188.976" viewBox="0 0 5000 5000"
     preserveAspectRatio="xMidYMid" fill-rule="evenodd" stroke-width="28.222"
     stroke-linejoin="round">
  <defs>
    <clipPath id="A">
      <path d="M0 0h5000v5000H0z"/>
    </clipPath>
  </defs>
  <g clip-path="url(#A)">
    <defs>
      <mask id="B">
        <path d="M1786-421h1337v6000H1786V-421z" fill="url(#C)"/>
      </mask>
      <linearGradient id="C" x1="2454" y1="-421" x2="2454" y2="5579" gradientUnits="userSpaceOnUse">
        <stop offset=".5" stop-color="#a6a6a6"/>
      </linearGradient>
    </defs>
    <g mask="url(#B)">
      <path fill="none" stroke="#000" stroke-width="1000"
            d="M2623 5079c-106-194-139-378-174-559-34-163-77-330-93-489-16-145-66-300-64-440 1-126-14-257 1-380 12-101-5-210 19-305 19-72 13-153 17-229 5-76 16-154 0-237-7-34-6-68 2-100 15-62 15-128 34-189 28-97 18-211 35-311 13-80 27-160 36-240 10-88 7-181 20-267 19-108-17-231-24-345-4-63-23-132-27-196-2-49 2-98-2-149-4-59-24-124-19-178 0-42 5-82 7-123 2-62-17-131-23-196l-8-37-4-30"/>
    </g>
  </g>
</svg>
