<svg xmlns="http://www.w3.org/2000/svg" width="188.976" height="188.976" viewBox="0 0 5000 5000"
  preserveAspectRatio="xMidYMid" fill-rule="evenodd" stroke-width="28.222" stroke-linejoin="round">
  <!--style><![CDATA[.B{fill:none}.C{stroke-width:159}.D{stroke:#81d41a}.E{stroke:#b2b2b2}.F{stroke:#3465a4}]]></style-->
  <defs>
    <clipPath id="A">
      <path d="M0 0h5000v5000H0z" />
    </clipPath>
    <linearGradient id="B" gradientUnits="userSpaceOnUse" />
  </defs>
  <g clip-path="url(#A)">
    <defs>
      <mask id="C">
        <path d="M0 0h4999v4999H0V0z" fill="url(#D)" />
      </mask>
      <pattern id="D" width="5000" height="5000" patternUnits="userSpaceOnUse">
        <g clip-path="url(#E)" stroke="none">
          <path fill="#000" d="M-1-1h5001v5001H-1V-1zm134 134h4732v4732H133V133z" />
          <path fill="#010101" d="M133 133h4732v4732H133V133zm9 9h4714v4714H142V142z" />
          <path fill="#020202" d="M142 142h4714v4714H142V142zm9 9h4696v4696H151V151z" />
          <path fill="#030303" d="M151 151h4696v4696H151V151zm10 10h4676v4676H161V161z" />
          <path fill="#040404" d="M161 161h4676v4676H161V161zm9 9h4658v4658H170V170z" />
          <path fill="#050505" d="M170 170h4658v4658H170V170zm9 9h4640v4640H179V179z" />
          <path fill="#060606" d="M179 179h4640v4640H179V179zm10 10h4620v4620H189V189z" />
          <path fill="#070707" d="M189 189h4620v4620H189V189zm9 9h4602v4602H198V198z" />
          <path fill="#080808" d="M198 198h4602v4602H198V198zm9 9h4584v4584H207V207z" />
          <path fill="#090909" d="M207 207h4584v4584H207V207zm10 10h4564v4564H217V217z" />
          <path fill="#0a0a0a" d="M217 217h4564v4564H217V217zm9 9h4546v4546H226V226z" />
          <path fill="#0b0b0b" d="M226 226h4546v4546H226V226zm9 9h4528v4528H235V235z" />
          <path fill="#0c0c0c" d="M235 235h4528v4528H235V235zm10 10h4508v4508H245V245z" />
          <path fill="#0d0d0d" d="M245 245h4508v4508H245V245zm9 9h4490v4490H254V254z" />
          <path fill="#0e0e0e" d="M254 254h4490v4490H254V254zm9 9h4472v4472H263V263z" />
          <path fill="#0f0f0f" d="M263 263h4472v4472H263V263zm10 10h4452v4452H273V273z" />
          <path fill="#101010" d="M273 273h4452v4452H273V273zm9 9h4434v4434H282V282z" />
          <path fill="#111" d="M282 282h4434v4434H282V282zm9 9h4416v4416H291V291z" />
          <path fill="#121212" d="M291 291h4416v4416H291V291zm10 10h4396v4396H301V301z" />
          <path fill="#131313" d="M301 301h4396v4396H301V301zm9 9h4378v4378H310V310z" />
          <path fill="#141414" d="M310 310h4378v4378H310V310zm9 9h4360v4360H319V319z" />
          <path fill="#151515" d="M319 319h4360v4360H319V319zm9 9h4342v4342H328V328z" />
          <path fill="#161616" d="M328 328h4342v4342H328V328zm10 10h4322v4322H338V338z" />
          <path fill="#171717" d="M338 338h4322v4322H338V338zm9 9h4304v4304H347V347z" />
          <path fill="#181818" d="M347 347h4304v4304H347V347zm9 9h4286v4286H356V356z" />
          <path fill="#191919" d="M356 356h4286v4286H356V356zm10 10h4266v4266H366V366z" />
          <path fill="#1a1a1a" d="M366 366h4266v4266H366V366zm9 9h4248v4248H375V375z" />
          <path fill="#1b1b1b" d="M375 375h4248v4248H375V375zm9 9h4230v4230H384V384z" />
          <path fill="#1c1c1c" d="M384 384h4230v4230H384V384zm10 10h4210v4210H394V394z" />
          <path fill="#1d1d1d" d="M394 394h4210v4210H394V394zm9 9h4192v4192H403V403z" />
          <path fill="#1e1e1e" d="M403 403h4192v4192H403V403zm9 9h4174v4174H412V412z" />
          <path fill="#1f1f1f" d="M412 412h4174v4174H412V412zm10 10h4154v4154H422V422z" />
          <path fill="#202020" d="M422 422h4154v4154H422V422zm9 9h4136v4136H431V431z" />
          <path fill="#212121" d="M431 431h4136v4136H431V431zm9 9h4118v4118H440V440z" />
          <path fill="#222" d="M440 440h4118v4118H440V440zm10 10h4098v4098H450V450z" />
          <path fill="#232323" d="M450 450h4098v4098H450V450zm9 9h4080v4080H459V459z" />
          <path fill="#242424" d="M459 459h4080v4080H459V459zm9 9h4062v4062H468V468z" />
          <path fill="#252525" d="M468 468h4062v4062H468V468zm10 10h4042v4042H478V478z" />
          <path fill="#262626" d="M478 478h4042v4042H478V478zm9 9h4024v4024H487V487z" />
          <path fill="#272727" d="M487 487h4024v4024H487V487zm9 9h4006v4006H496V496z" />
          <path fill="#282828" d="M496 496h4006v4006H496V496zm10 10h3986v3986H506V506z" />
          <path fill="#292929" d="M506 506h3986v3986H506V506zm9 9h3968v3968H515V515z" />
          <path fill="#2a2a2a" d="M515 515h3968v3968H515V515zm9 9h3950v3950H524V524z" />
          <path fill="#2b2b2b" d="M524 524h3950v3950H524V524zm9 9h3932v3932H533V533z" />
          <path fill="#2c2c2c" d="M533 533h3932v3932H533V533zm10 10h3912v3912H543V543z" />
          <path fill="#2d2d2d" d="M543 543h3912v3912H543V543zm9 9h3894v3894H552V552z" />
          <path fill="#2e2e2e" d="M552 552h3894v3894H552V552zm9 9h3876v3876H561V561z" />
          <path fill="#2f2f2f" d="M561 561h3876v3876H561V561zm10 10h3856v3856H571V571z" />
          <path fill="#303030" d="M571 571h3856v3856H571V571zm9 9h3838v3838H580V580z" />
          <path fill="#313131" d="M580 580h3838v3838H580V580zm9 9h3820v3820H589V589z" />
          <path fill="#323232" d="M589 589h3820v3820H589V589zm10 10h3800v3800H599V599z" />
          <path fill="#333" d="M599 599h3800v3800H599V599zm9 9h3782v3782H608V608z" />
          <path fill="#343434" d="M608 608h3782v3782H608V608zm9 9h3764v3764H617V617z" />
          <path fill="#353535" d="M617 617h3764v3764H617V617zm10 10h3744v3744H627V627z" />
          <path fill="#363636" d="M627 627h3744v3744H627V627zm9 9h3726v3726H636V636z" />
          <path fill="#373737" d="M636 636h3726v3726H636V636zm9 9h3708v3708H645V645z" />
          <path fill="#383838" d="M645 645h3708v3708H645V645zm10 10h3688v3688H655V655z" />
          <path fill="#393939" d="M655 655h3688v3688H655V655zm9 9h3670v3670H664V664z" />
          <path fill="#3a3a3a" d="M664 664h3670v3670H664V664zm9 9h3652v3652H673V673z" />
          <path fill="#3b3b3b" d="M673 673h3652v3652H673V673zm10 10h3632v3632H683V683z" />
          <path fill="#3c3c3c" d="M683 683h3632v3632H683V683zm9 9h3614v3614H692V692z" />
          <path fill="#3d3d3d" d="M692 692h3614v3614H692V692zm9 9h3596v3596H701V701z" />
          <path fill="#3e3e3e" d="M701 701h3596v3596H701V701zm10 10h3576v3576H711V711z" />
          <path fill="#3f3f3f" d="M711 711h3576v3576H711V711zm9 9h3558v3558H720V720z" />
          <path fill="#404040" d="M720 720h3558v3558H720V720zm9 9h3540v3540H729V729z" />
          <path fill="#414141" d="M729 729h3540v3540H729V729zm9 9h3522v3522H738V738z" />
          <path fill="#424242" d="M738 738h3522v3522H738V738zm10 10h3502v3502H748V748z" />
          <path fill="#434343" d="M748 748h3502v3502H748V748zm9 9h3484v3484H757V757z" />
          <path fill="#444" d="M757 757h3484v3484H757V757zm9 9h3466v3466H766V766z" />
          <path fill="#454545" d="M766 766h3466v3466H766V766zm10 10h3446v3446H776V776z" />
          <path fill="#464646" d="M776 776h3446v3446H776V776zm9 9h3428v3428H785V785z" />
          <path fill="#474747" d="M785 785h3428v3428H785V785zm9 9h3410v3410H794V794z" />
          <path fill="#484848" d="M794 794h3410v3410H794V794zm10 10h3390v3390H804V804z" />
          <path fill="#494949" d="M804 804h3390v3390H804V804zm9 9h3372v3372H813V813z" />
          <path fill="#4a4a4a" d="M813 813h3372v3372H813V813zm9 9h3354v3354H822V822z" />
          <path fill="#4b4b4b" d="M822 822h3354v3354H822V822zm10 10h3334v3334H832V832z" />
          <path fill="#4c4c4c" d="M832 832h3334v3334H832V832zm9 9h3316v3316H841V841z" />
          <path fill="#4d4d4d" d="M841 841h3316v3316H841V841zm9 9h3298v3298H850V850z" />
          <path fill="#4e4e4e" d="M850 850h3298v3298H850V850zm10 10h3278v3278H860V860z" />
          <path fill="#4f4f4f" d="M860 860h3278v3278H860V860zm9 9h3260v3260H869V869z" />
          <path fill="#505050" d="M869 869h3260v3260H869V869zm9 9h3242v3242H878V878z" />
          <path fill="#515151" d="M878 878h3242v3242H878V878zm10 10h3222v3222H888V888z" />
          <path fill="#525252" d="M888 888h3222v3222H888V888zm9 9h3204v3204H897V897z" />
          <path fill="#535353" d="M897 897h3204v3204H897V897zm9 9h3186v3186H906V906z" />
          <path fill="#545454" d="M906 906h3186v3186H906V906zm10 10h3167v3167H916V916z" />
          <path fill="#555" d="M916 916h3167v3167H916V916zm9 9h3148v3148H925V925z" />
          <path fill="#565656" d="M925 925h3148v3148H925V925zm9 9h3130v3130H934V934z" />
          <path fill="#575757" d="M934 934h3130v3130H934V934zm9 9h3112v3112H943V943z" />
          <path fill="#585858" d="M943 943h3112v3112H943V943zm10 10h3092v3092H953V953z" />
          <path fill="#595959" d="M953 953h3092v3092H953V953zm9 9h3074v3074H962V962z" />
          <path fill="#5a5a5a" d="M962 962h3074v3074H962V962zm9 9h3056v3056H971V971z" />
          <path fill="#5b5b5b" d="M971 971h3056v3056H971V971zm10 10h3036v3036H981V981z" />
          <path fill="#5c5c5c" d="M981 981h3036v3036H981V981zm9 9h3018v3018H990V990z" />
          <path fill="#5d5d5d" d="M990 990h3018v3018H990V990zm9 9h3000v3000H999V999z" />
          <path fill="#5e5e5e" d="M999 999h3000v3000H999V999zm10 10h2980v2980H1009V1009z" />
          <path fill="#5f5f5f" d="M1009 1009h2980v2980H1009V1009zm9 9h2962v2962H1018V1018z" />
          <path fill="#606060" d="M1018 1018h2962v2962H1018V1018zm9 9h2944v2944H1027V1027z" />
          <path fill="#616161" d="M1027 1027h2944v2944H1027V1027zm10 10h2924v2924H1037V1037z" />
          <path fill="#626262" d="M1037 1037h2924v2924H1037V1037zm9 9h2906v2906H1046V1046z" />
          <path fill="#636363" d="M1046 1046h2906v2906H1046V1046zm9 9h2888v2888H1055V1055z" />
          <path fill="#646464" d="M1055 1055h2888v2888H1055V1055zm10 10h2868v2868H1065V1065z" />
          <path fill="#656565" d="M1065 1065h2868v2868H1065V1065zm9 9h2850v2850H1074V1074z" />
          <path fill="#666" d="M1074 1074h2850v2850H1074V1074zm9 9h2832v2832H1083V1083z" />
          <path fill="#676767" d="M1083 1083h2832v2832H1083V1083zm10 10h2812v2812H1093V1093z" />
          <path fill="#686868" d="M1093 1093h2812v2812H1093V1093zm9 9h2794v2794H1102V1102z" />
          <path fill="#696969" d="M1102 1102h2794v2794H1102V1102zm9 9h2776v2776H1111V1111z" />
          <path fill="#6a6a6a" d="M1111 1111h2776v2776H1111V1111zm9 9h2758v2758H1120V1120z" />
          <path fill="#6b6b6b" d="M1120 1120h2758v2758H1120V1120zm10 10h2738v2738H1130V1130z" />
          <path fill="#6c6c6c" d="M1130 1130h2738v2738H1130V1130zm9 9h2720v2720H1139V1139z" />
          <path fill="#6d6d6d" d="M1139 1139h2720v2720H1139V1139zm9 9h2702v2702H1148V1148z" />
          <path fill="#6e6e6e" d="M1148 1148h2702v2702H1148V1148zm10 10h2682v2682H1158V1158z" />
          <path fill="#6f6f6f" d="M1158 1158h2682v2682H1158V1158zm9 9h2664v2664H1167V1167z" />
          <path fill="#707070" d="M1167 1167h2664v2664H1167V1167zm9 9h2646v2646H1176V1176z" />
          <path fill="#717171" d="M1176 1176h2646v2646H1176V1176zm10 10h2626v2626H1186V1186z" />
          <path fill="#727272" d="M1186 1186h2626v2626H1186V1186zm9 9h2608v2608H1195V1195z" />
          <path fill="#737373" d="M1195 1195h2608v2608H1195V1195zm9 9h2590v2590H1204V1204z" />
          <path fill="#747474" d="M1204 1204h2590v2590H1204V1204zm10 10h2570v2570H1214V1214z" />
          <path fill="#757575" d="M1214 1214h2570v2570H1214V1214zm9 9h2552v2552H1223V1223z" />
          <path fill="#767676" d="M1223 1223h2552v2552H1223V1223zm9 9h2534v2534H1232V1232z" />
          <path fill="#777" d="M1232 1232h2534v2534H1232V1232zm10 10h2514v2514H1242V1242z" />
          <path fill="#787878" d="M1242 1242h2514v2514H1242V1242zm9 9h2496v2496H1251V1251z" />
          <path fill="#797979" d="M1251 1251h2496v2496H1251V1251zm9 9h2478v2478H1260V1260z" />
          <path fill="#7a7a7a" d="M1260 1260h2478v2478H1260V1260zm10 10h2458v2458H1270V1270z" />
          <path fill="#7b7b7b" d="M1270 1270h2458v2458H1270V1270zm9 9h2440v2440H1279V1279z" />
          <path fill="#7c7c7c" d="M1279 1279h2440v2440H1279V1279zm9 9h2422v2422H1288V1288z" />
          <path fill="#7d7d7d" d="M1288 1288h2422v2422H1288V1288zm10 10h2402v2402H1298V1298z" />
          <path fill="#7e7e7e" d="M1298 1298h2402v2402H1298V1298zm9 9h2384v2384H1307V1307z" />
          <path fill="#7f7f7f" d="M1307 1307h2384v2384H1307V1307zm9 9h2366v2366H1316V1316z" />
          <path fill="gray" d="M1316 1316h2366v2366H1316V1316zm9 9h2348v2348H1325V1325z" />
          <path fill="#818181" d="M1325 1325h2348v2348H1325V1325zm10 10h2328v2328H1335V1335z" />
          <path fill="#828282" d="M1335 1335h2328v2328H1335V1335zm9 9h2310v2310H1344V1344z" />
          <path fill="#838383" d="M1344 1344h2310v2310H1344V1344zm9 9h2292v2292H1353V1353z" />
          <path fill="#848484" d="M1353 1353h2292v2292H1353V1353zm10 10h2272v2272H1363V1363z" />
          <path fill="#858585" d="M1363 1363h2272v2272H1363V1363zm9 9h2254v2254H1372V1372z" />
          <path fill="#868686" d="M1372 1372h2254v2254H1372V1372zm9 9h2236v2236H1381V1381z" />
          <path fill="#878787" d="M1381 1381h2236v2236H1381V1381zm10 10h2216v2216H1391V1391z" />
          <path fill="#888" d="M1391 1391h2216v2216H1391V1391zm9 9h2198v2198H1400V1400z" />
          <path fill="#898989" d="M1400 1400h2198v2198H1400V1400zm9 9h2180v2180H1409V1409z" />
          <path fill="#8a8a8a" d="M1409 1409h2180v2180H1409V1409zm10 10h2160v2160H1419V1419z" />
          <path fill="#8b8b8b" d="M1419 1419h2160v2160H1419V1419zm9 9h2142v2142H1428V1428z" />
          <path fill="#8c8c8c" d="M1428 1428h2142v2142H1428V1428zm9 9h2124v2124H1437V1437z" />
          <path fill="#8d8d8d" d="M1437 1437h2124v2124H1437V1437zm10 10h2104v2104H1447V1447z" />
          <path fill="#8e8e8e" d="M1447 1447h2104v2104H1447V1447zm9 9h2086v2086H1456V1456z" />
          <path fill="#8f8f8f" d="M1456 1456h2086v2086H1456V1456zm9 9h2068v2068H1465V1465z" />
          <path fill="#909090" d="M1465 1465h2068v2068H1465V1465zm10 10h2048v2048H1475V1475z" />
          <path fill="#919191" d="M1475 1475h2048v2048H1475V1475zm9 9h2030v2030H1484V1484z" />
          <path fill="#929292" d="M1484 1484h2030v2030H1484V1484zm9 9h2012v2012H1493V1493z" />
          <path fill="#939393" d="M1493 1493h2012v2012H1493V1493zm10 10h1992v1992H1503V1503z" />
          <path fill="#949494" d="M1503 1503h1992v1992H1503V1503zm9 9h1974v1974H1512V1512z" />
          <path fill="#959595" d="M1512 1512h1974v1974H1512V1512zm9 9h1956v1956H1521V1521z" />
          <path fill="#969696" d="M1521 1521h1956v1956H1521V1521zm9 9h1938v1938H1530V1530z" />
          <path fill="#979797" d="M1530 1530h1938v1938H1530V1530zm10 10h1918v1918H1540V1540z" />
          <path fill="#989898" d="M1540 1540h1918v1918H1540V1540zm9 9h1900v1900H1549V1549z" />
          <path fill="#999" d="M1549 1549h1900v1900H1549V1549zm9 9h1882v1882H1558V1558z" />
          <path fill="#9a9a9a" d="M1558 1558h1882v1882H1558V1558zm10 10h1862v1862H1568V1568z" />
          <path fill="#9b9b9b" d="M1568 1568h1862v1862H1568V1568zm9 9h1844v1844H1577V1577z" />
          <path fill="#9c9c9c" d="M1577 1577h1844v1844H1577V1577zm9 9h1826v1826H1586V1586z" />
          <path fill="#9d9d9d" d="M1586 1586h1826v1826H1586V1586zm10 10h1806v1806H1596V1596z" />
          <path fill="#9e9e9e" d="M1596 1596h1806v1806H1596V1596zm9 9h1788v1788H1605V1605z" />
          <path fill="#9f9f9f" d="M1605 1605h1788v1788H1605V1605zm9 9h1770v1770H1614V1614z" />
          <path fill="#a0a0a0" d="M1614 1614h1770v1770H1614V1614zm10 10h1750v1750H1624V1624z" />
          <path fill="#a1a1a1" d="M1624 1624h1750v1750H1624V1624zm9 9h1732v1732H1633V1633z" />
          <path fill="#a2a2a2" d="M1633 1633h1732v1732H1633V1633zm9 9h1714v1714H1642V1642z" />
          <path fill="#a3a3a3" d="M1642 1642h1714v1714H1642V1642zm10 10h1694v1694H1652V1652z" />
          <path fill="#a4a4a4" d="M1652 1652h1694v1694H1652V1652zm9 9h1676v1676H1661V1661z" />
          <path fill="#a5a5a5" d="M1661 1661h1676v1676H1661V1661zm9 9h1658v1658H1670V1670z" />
          <path fill="#a6a6a6" d="M1670 1670h1658v1658H1670V1670zm10 10h1638v1638H1680V1680z" />
          <path fill="#a7a7a7" d="M1680 1680h1638v1638H1680V1680zm9 9h1620v1620H1689V1689z" />
          <path fill="#a8a8a8" d="M1689 1689h1620v1620H1689V1689zm9 9h1602v1602H1698V1698z" />
          <path fill="#a9a9a9" d="M1698 1698h1602v1602H1698V1698zm9 9h1584v1584H1707V1707z" />
          <path fill="#aaa" d="M1707 1707h1584v1584H1707V1707zm10 10h1564v1564H1717V1717z" />
          <path fill="#ababab" d="M1717 1717h1564v1564H1717V1717zm9 9h1546v1546H1726V1726z" />
          <path fill="#acacac" d="M1726 1726h1546v1546H1726V1726zm9 9h1528v1528H1735V1735z" />
          <path fill="#adadad" d="M1735 1735h1528v1528H1735V1735zm10 10h1508v1508H1745V1745z" />
          <path fill="#aeaeae" d="M1745 1745h1508v1508H1745V1745zm9 9h1490v1490H1754V1754z" />
          <path fill="#afafaf" d="M1754 1754h1490v1490H1754V1754zm9 9h1472v1472H1763V1763z" />
          <path fill="#b0b0b0" d="M1763 1763h1472v1472H1763V1763zm10 10h1452v1452H1773V1773z" />
          <path fill="#b1b1b1" d="M1773 1773h1452v1452H1773V1773zm9 9h1434v1434H1782V1782z" />
          <path fill="#b2b2b2" d="M1782 1782h1434v1434H1782V1782zm9 9h1416v1416H1791V1791z" />
          <path fill="#b3b3b3" d="M1791 1791h1416v1416H1791V1791zm10 10h1396v1396H1801V1801z" />
          <path fill="#b4b4b4" d="M1801 1801h1396v1396H1801V1801zm9 9h1378v1378H1810V1810z" />
          <path fill="#b5b5b5" d="M1810 1810h1378v1378H1810V1810zm9 9h1360v1360H1819V1819z" />
          <path fill="#b6b6b6" d="M1819 1819h1360v1360H1819V1819zm10 10h1340v1340H1829V1829z" />
          <path fill="#b7b7b7" d="M1829 1829h1340v1340H1829V1829zm9 9h1322v1322H1838V1838z" />
          <path fill="#b8b8b8" d="M1838 1838h1322v1322H1838V1838zm9 9h1304v1304H1847V1847z" />
          <path fill="#b9b9b9" d="M1847 1847h1304v1304H1847V1847zm10 10h1284v1284H1857V1857z" />
          <path fill="#bababa" d="M1857 1857h1284v1284H1857V1857zm9 9h1266v1266H1866V1866z" />
          <path fill="#bbb" d="M1866 1866h1266v1266H1866V1866zm9 9h1248v1248H1875V1875z" />
          <path fill="#bcbcbc" d="M1875 1875h1248v1248H1875V1875zm10 10h1228v1228H1885V1885z" />
          <path fill="#bdbdbd" d="M1885 1885h1228v1228H1885V1885zm9 9h1210v1210H1894V1894z" />
          <path fill="#bebebe" d="M1894 1894h1210v1210H1894V1894zm9 9h1192v1192H1903V1903z" />
          <path fill="#bfbfbf" d="M1903 1903h1192v1192H1903V1903zm9 9h1174v1174H1912V1912z" />
          <path fill="silver" d="M1912 1912h1174v1174H1912V1912zm10 10h1154v1154H1922V1922z" />
          <path fill="#c1c1c1" d="M1922 1922h1154v1154H1922V1922zm9 9h1136v1136H1931V1931z" />
          <path fill="#c2c2c2" d="M1931 1931h1136v1136H1931V1931zm9 9h1118v1118H1940V1940z" />
          <path fill="#c3c3c3" d="M1940 1940h1118v1118H1940V1940zm10 10h1098v1098H1950V1950z" />
          <path fill="#c4c4c4" d="M1950 1950h1098v1098H1950V1950zm9 9h1080v1080H1959V1959z" />
          <path fill="#c5c5c5" d="M1959 1959h1080v1080H1959V1959zm9 9h1062v1062H1968V1968z" />
          <path fill="#c6c6c6" d="M1968 1968h1062v1062H1968V1968zm10 10h1042v1042H1978V1978z" />
          <path fill="#c7c7c7" d="M1978 1978h1042v1042H1978V1978zm9 9h1024v1024H1987V1987z" />
          <path fill="#c8c8c8" d="M1987 1987h1024v1024H1987V1987zm9 9h1006v1006H1996V1996z" />
          <path fill="#c9c9c9" d="M1996 1996h1006v1006H1996V1996zm10 10h986v986h-986v-986z" />
          <path fill="#cacaca" d="M2006 2006h986v986h-986v-986zm9 9h968v968h-968v-968z" />
          <path fill="#cbcbcb" d="M2015 2015h968v968h-968v-968zm9 9h950v950h-950v-950z" />
          <path fill="#ccc" d="M2024 2024h950v950h-950v-950zm10 10h930v930h-930v-930z" />
          <path fill="#cdcdcd" d="M2034 2034h930v930h-930v-930zm9 9h912v912h-912v-912z" />
          <path fill="#cecece" d="M2043 2043h912v912h-912v-912zm9 9h894v894h-894v-894z" />
          <path fill="#cfcfcf" d="M2052 2052h894v894h-894v-894zm10 10h874v874h-874v-874z" />
          <path fill="#d0d0d0" d="M2062 2062h874v874h-874v-874zm9 9h856v856h-856v-856z" />
          <path fill="#d1d1d1" d="M2071 2071h856v856h-856v-856zm9 9h838v838h-838v-838z" />
          <path fill="#d2d2d2" d="M2080 2080h838v838h-838v-838zm10 10h818v818h-818v-818z" />
          <path fill="#d3d3d3" d="M2090 2090h818v818h-818v-818zm9 9h800v800h-800v-800z" />
          <path fill="#d4d4d4" d="M2099 2099h800v800h-800v-800zm9 9h782v782h-782v-782z" />
          <path fill="#d5d5d5" d="M2108 2108h782v782h-782v-782zm9 9h764v764h-764v-764z" />
          <path fill="#d6d6d6" d="M2117 2117h764v764h-764v-764zm10 10h744v744h-744v-744z" />
          <path fill="#d7d7d7" d="M2127 2127h744v744h-744v-744zm9 9h726v726h-726v-726z" />
          <path fill="#d8d8d8" d="M2136 2136h726v726h-726v-726zm9 9h708v708h-708v-708z" />
          <path fill="#d9d9d9" d="M2145 2145h708v708h-708v-708zm10 10h688v688h-688v-688z" />
          <path fill="#dadada" d="M2155 2155h688v688h-688v-688zm9 9h670v670h-670v-670z" />
          <path fill="#dbdbdb" d="M2164 2164h670v670h-670v-670zm9 9h652v652h-652v-652z" />
          <path fill="#dcdcdc" d="M2173 2173h652v652h-652v-652zm10 10h632v632h-632v-632z" />
          <path fill="#ddd" d="M2183 2183h632v632h-632v-632zm9 9h614v614h-614v-614z" />
          <path fill="#dedede" d="M2192 2192h614v614h-614v-614zm9 9h596v596h-596v-596z" />
          <path fill="#dfdfdf" d="M2201 2201h596v596h-596v-596zm10 10h576v576h-576v-576z" />
          <path fill="#e0e0e0" d="M2211 2211h576v576h-576v-576zm9 9h558v558h-558v-558z" />
          <path fill="#e1e1e1" d="M2220 2220h558v558h-558v-558zm9 9h540v540h-540v-540z" />
          <path fill="#e2e2e2" d="M2229 2229h540v540h-540v-540zm10 10h520v520h-520v-520z" />
          <path fill="#e3e3e3" d="M2239 2239h520v520h-520v-520zm9 9h502v502h-502v-502z" />
          <path fill="#e4e4e4" d="M2248 2248h502v502h-502v-502zm9 9h484v484h-484v-484z" />
          <path fill="#e5e5e5" d="M2257 2257h484v484h-484v-484zm10 10h464v464h-464v-464z" />
          <path fill="#e6e6e6" d="M2267 2267h464v464h-464v-464zm9 9h446v446h-446v-446z" />
          <path fill="#e7e7e7" d="M2276 2276h446v446h-446v-446zm9 9h428v428h-428v-428z" />
          <path fill="#e8e8e8" d="M2285 2285h428v428h-428v-428zm10 10h408v408h-408v-408z" />
          <path fill="#e9e9e9" d="M2295 2295h408v408h-408v-408zm9 9h390v390h-390v-390z" />
          <path fill="#eaeaea" d="M2304 2304h390v390h-390v-390zm9 9h372v372h-372v-372z" />
          <path fill="#ebebeb" d="M2313 2313h372v372h-372v-372zm9 9h354v354h-354v-354z" />
          <path fill="#ececec" d="M2322 2322h354v354h-354v-354zm10 10h334v334h-334v-334z" />
          <path fill="#ededed" d="M2332 2332h334v334h-334v-334zm9 9h316v316h-316v-316z" />
          <path fill="#eee" d="M2341 2341h316v316h-316v-316zm9 9h298v298h-298v-298z" />
          <path fill="#efefef" d="M2350 2350h298v298h-298v-298zm10 10h278v278h-278v-278z" />
          <path fill="#f0f0f0" d="M2360 2360h278v278h-278v-278zm9 9h260v260h-260v-260z" />
          <path fill="#f1f1f1" d="M2369 2369h260v260h-260v-260zm9 9h242v242h-242v-242z" />
          <path fill="#f2f2f2" d="M2378 2378h242v242h-242v-242zm10 10h222v222h-222v-222z" />
          <path fill="#f3f3f3" d="M2388 2388h222v222h-222v-222zm9 9h204v204h-204v-204z" />
          <path fill="#f4f4f4" d="M2397 2397h204v204h-204v-204zm9 9h186v186h-186v-186z" />
          <path fill="#f5f5f5" d="M2406 2406h186v186h-186v-186zm10 10h166v166h-166v-166z" />
          <path fill="#f6f6f6" d="M2416 2416h166v166h-166v-166zm9 9h148v148h-148v-148z" />
          <path fill="#f7f7f7" d="M2425 2425h148v148h-148v-148zm9 9h130v130h-130v-130z" />
          <path fill="#f8f8f8" d="M2434 2434h130v130h-130v-130zm10 10h110v110h-110v-110z" />
          <path fill="#f9f9f9" d="M2444 2444h110v110h-110v-110zm9 9h92v92h-92v-92z" />
          <path fill="#fafafa" d="M2453 2453h92v92h-92v-92zm9 9h74v74h-74v-74z" />
          <path fill="#fbfbfb" d="M2462 2462h74v74h-74v-74zm10 10h54v54h-54v-54z" />
          <path fill="#fcfcfc" d="M2472 2472h54v54h-54v-54zm9 9h36v36h-36v-36z" />
          <path fill="#fdfdfd" d="M2481 2481h36v36h-36v-36zm9 9h18v18h-18v-18z" />
          <path fill="#fff" d="M2490 2490h18v18h-18v-18z" />
        </g>
      </pattern>
      <clipPath id="E">
        <path d="M0 0h5004v5004H0V0z" />
      </clipPath>
    </defs>
    <g mask="url(#C)">
      <path fill="#fff" d="M2500 4999H0V0h4999v4999H2500z" />
    </g>
    <defs>
      <mask id="F">
        <path d="M809 0h1816v4877H809V0z" fill="url(#G)" />
      </mask>
      <linearGradient id="G" x1="1717" y1="0" x2="1717" y2="4877" href="#B">
        <stop offset=".5" stop-color="gray" />
      </linearGradient>
    </defs>
    <g mask="url(#F)" fill="none" stroke-width="159" stroke="#b2b2b2">
      <path
        d="M896 4797c-11-54-11-113 3-162 65-244 138-490 231-719 128-311 231-640 347-959 118-324 194-673 313-994 78-207 134-434 238-620 62-110 99-232 153-346 31-67 53-146 73-220 12-43 20-89 26-133 7-45 22-87 29-130 6-43 20-83 41-116 27-45 53-96 84-134 32-37 53-84 83-123l19-35 10-27" />
    </g>
    <defs>
      <mask id="H">
        <path d="M2581 109h1569v4850H2581V109z" fill="url(#I)" />
      </mask>
      <linearGradient id="I" x1="3365" y1="109" x2="3365" y2="4959" href="#B">
        <stop offset=".5" stop-color="gray" />
      </linearGradient>
    </defs>
    <g mask="url(#H)" fill="none" stroke-width="159" stroke="#b2b2b2">
      <path
        d="M2660 4879c44-213 146-386 203-589 62-214 148-422 191-645 56-292 96-592 122-891s66-598 100-893c16-141 52-281 83-416 14-60 33-118 52-174 41-117 81-237 145-339 41-64 80-136 118-202 37-62 79-118 117-175 32-48 65-94 97-141 36-53 73-107 114-154l29-34 26-23 13-15" />
    </g>
    <defs>
      <mask id="J">
        <path d="M559 1124h3967v534H559v-534z" fill="url(#K)" />
      </mask>
      <linearGradient id="K" x1="2542" y1="1124" x2="2542" y2="1658" href="#B">
        <stop offset=".5" stop-color="gray" />
      </linearGradient>
    </defs>
    <g mask="url(#J)" fill="none" stroke-width="159" stroke="#b2b2b2">
      <path
        d="M638 1205c121-5 244 7 364 32 219 44 442 32 662 52 381 33 764 56 1147 82 316 21 637 22 952 84 130 26 259 62 388 101 60 17 124 16 186 23l46-6 47-4 16-3" />
    </g>
    <defs>
      <mask id="L">
        <path d="M344 3241h4116v830H344v-830z" fill="url(#M)" />
      </mask>
      <linearGradient id="M" x1="2402" y1="3241" x2="2402" y2="4071" href="#B">
        <stop offset=".5" stop-color="gray" />
      </linearGradient>
    </defs>
    <g mask="url(#L)" fill="none" stroke-width="159">
      <path stroke="#ccc"
        d="M424 3321c83-3 167 5 250 13 191 18 385 49 576 76 205 31 413 47 618 85 170 33 342 61 513 89 186 31 368 106 550 165 129 43 256 106 388 134 130 28 264 54 397 68 98 12 198-5 297 13 34 8 71 5 107 8 39 4 79 18 120 20 35 3 66-30 99-48l26-4 16-6" />
    </g>
    <defs>
      <mask id="N">
        <path d="M384 1479h729v1602H384V1479z" fill="url(#O)" />
      </mask>
      <linearGradient id="O" x1="748" y1="1479" x2="748" y2="3081" href="#B">
        <stop offset=".5" stop-color="#4d4d4d" />
      </linearGradient>
    </defs>
    <g mask="url(#N)" fill="none" stroke-width="159" stroke="#81d41a">
      <path
        d="M463 1559c54 75 125 126 183 195 50 62 109 117 156 186 23 34 31 83 42 126 15 63 21 131 39 195 11 42 12 89 15 134 3 49 18 101 21 151 2 47 11 93 28 133 20 44 33 92 43 141 10 46 26 89 36 137l8 34v10" />
    </g>
    <defs>
      <mask id="P">
        <path d="M290 1428h1339v1420H290V1428z" fill="url(#Q)" />
      </mask>
      <linearGradient id="Q" x1="959" y1="1428" x2="959" y2="2848" href="#B">
        <stop offset=".5" stop-color="#4d4d4d" />
      </linearGradient>
    </defs>
    <g mask="url(#P)" fill="none" stroke-width="159" stroke="#81d41a">
      <path
        d="M369 2768c48-76 98-149 154-212 67-76 113-176 183-251 70-74 130-168 203-239 96-91 182-205 287-282 50-36 102-72 150-116 40-35 84-71 128-99l42-37 28-20 5-5" />
    </g>
    <defs>
      <mask id="R">
        <path d="M1937 1811h979v1318h-979V1811z" fill="url(#S)" />
      </mask>
      <linearGradient id="S" x1="2426" y1="1811" x2="2426" y2="3129" href="#B">
        <stop offset=".5" stop-color="#4d4d4d" />
      </linearGradient>
    </defs>
    <g mask="url(#R)" fill="none" stroke-width="159" stroke="#3465a4">
      <path
        d="M2756 1974c-109-56-226-87-343-83-48 2-71 69-101 106-49 61-73 144-100 220-47 129-109 254-149 391-13 46-44 82-47 134-1 41 8 83 40 112 40 36 84 67 128 100 45 33 95 56 145 72 37 12 77 26 118 23 36-3 74 6 112-10 46-20 94-50 133-89 47-48 78-121 96-191 24-92 45-191 45-289v-134c1-61 7-125 2-183-3-49-13-105-45-141-29-35-64-46-96-69l-8-3" />
    </g>
    <defs>
      <mask id="T">
        <path d="M3282 2100h996v1011h-996V2100z" fill="url(#U)" />
      </mask>
      <linearGradient id="U" x1="3780" y1="2100" x2="3780" y2="3111" href="#B">
        <stop offset=".5" stop-color="#4d4d4d" />
      </linearGradient>
    </defs>
    <g mask="url(#T)" fill="none" stroke-width="159" stroke="#81d41a">
      <path
        d="M4198 2179c-59 97-154 128-216 219-69 100-171 155-253 237-69 69-151 119-214 195-29 35-68 58-85 107l-27 23-28 38-13 33" />
    </g>
    <defs>
      <mask id="V">
        <path d="M3509 1994h725v1340h-725V1994z" fill="url(#W)" />
      </mask>
      <linearGradient id="W" x1="3871" y1="1994" x2="3871" y2="3334" href="#B">
        <stop offset=".5" stop-color="#4d4d4d" />
      </linearGradient>
    </defs>
    <g mask="url(#V)" fill="none" stroke-width="159" stroke="#81d41a">
      <path
        d="M3588 2073c6 69 39 128 58 191 47 154 120 295 198 425 58 98 95 209 141 315 22 50 41 106 64 158 22 52 66 53 100 82l5 10" />
    </g>
    <defs>
      <mask id="X">
        <path d="M223 3471h790v1093H223V3471z" fill="url(#Y)" />
      </mask>
      <linearGradient id="Y" x1="618" y1="3471" x2="618" y2="4564" href="#B">
        <stop offset=".5" stop-color="#4d4d4d" />
      </linearGradient>
    </defs>
    <g mask="url(#X)" fill="none" stroke-width="159" stroke="#3465a4">
      <path
        d="M669 3635c-100-105-172-3-240 64-50 49-86 120-109 193-23 67-21 145-8 215 11 61 30 117 49 176 19 57 34 110 81 153 33 31 64 45 99 45 51 1 102 10 154-10 45-17 89-53 126-99 27-36 49-82 69-124 23-47 28-109 37-164 6-50 9-104 3-155-8-56-12-109-26-163-16-52-33-105-61-141-27-35-68-40-101-62s-71-12-104-3c-40 10-80 4-118 20l-26 17-5 3" />
    </g>
    <defs>
      <mask id="Z">
        <path d="M3923 160h927v1205h-927V160z" fill="url(#a)" />
      </mask>
      <linearGradient id="a" x1="4386" y1="160" x2="4386" y2="1365" href="#B">
        <stop offset=".5" stop-color="#4d4d4d" />
      </linearGradient>
    </defs>
    <g mask="url(#Z)" fill="none" stroke-width="159" stroke="#3465a4">
      <path
        d="M4528 257c-72 155-281 99-379 237-32 48-77 86-94 147-18 76-32 158-47 237-11 62-6 129 11 191 14 50 40 95 74 123 54 45 123 56 184 72 60 16 125 30 185 15 57-15 101-81 141-134 48-62 103-124 128-205 17-52 44-112 39-173-4-60 10-125-18-181-31-64-70-126-115-175-31-35-71-48-102-75-46-41-100-54-148-86l-27-10-34 24-15 18" />
    </g>
    <defs>
      <mask id="b">
        <path d="M100 202h4858v4468H100V202z" fill="url(#c)" />
      </mask>
      <linearGradient id="c" x1="2529" y1="202" x2="2529" y2="4670" href="#B">
        <stop offset=".5" stop-color="#666" />
      </linearGradient>
    </defs>
    <g mask="url(#b)" fill="none" stroke-width="159">
      <path stroke="#000"
        d="M179 4590c120-228 278-401 432-574 138-156 273-321 418-464 130-129 249-289 387-405 124-104 242-222 371-312 106-76 201-178 309-241 82-48 158-119 235-179 77-61 159-118 230-197 29-32 63-59 99-80 69-42 134-97 206-136 112-63 217-163 326-236 85-57 173-113 257-175 91-66 180-145 273-207 117-77 214-203 320-302 59-55 114-124 174-179 47-42 97-80 144-125 54-51 104-118 161-160 40-33 84-64 124-97 62-51 117-118 176-177l31-35 27-28" />
    </g>
  </g>
</svg>
