<?xml version="1.0" encoding="UTF-8"?>
<!DOCTYPE svg PUBLIC "-//W3C//DTD SVG 1.1//EN" "http://www.w3.org/Graphics/SVG/1.1/DTD/svg11.dtd">
<svg version="1.2" width="50mm" height="50mm" viewBox="0 0 5000 5000" preserveAspectRatio="xMidYMid" fill-rule="evenodd" stroke-width="28.222" stroke-linejoin="round" xmlns="http://www.w3.org/2000/svg" xmlns:ooo="http://xml.openoffice.org/svg/export" xmlns:xlink="http://www.w3.org/1999/xlink" xmlns:presentation="http://sun.com/xmlns/staroffice/presentation" xmlns:smil="http://www.w3.org/2001/SMIL20/" xmlns:anim="urn:oasis:names:tc:opendocument:xmlns:animation:1.0" xml:space="preserve">
 <defs class="ClipPathGroup">
  <clipPath id="presentation_clip_path" clipPathUnits="userSpaceOnUse">
   <rect x="0" y="0" width="5000" height="5000"/>
  </clipPath>
  <clipPath id="presentation_clip_path_shrink" clipPathUnits="userSpaceOnUse">
   <rect x="5" y="5" width="4990" height="4990"/>
  </clipPath>
 </defs>
 <defs class="TextShapeIndex">
  <g ooo:slide="id1" ooo:id-list="id3 id4 id5 id6 id7 id8 id9 id10 id11 id12 id13 id14"/>
 </defs>
 <defs class="EmbeddedBulletChars">
  <g id="bullet-char-template-57356" transform="scale(0.00048828125,-0.00048828125)">
   <path d="M 580,1141 L 1163,571 580,0 -4,571 580,1141 Z"/>
  </g>
  <g id="bullet-char-template-57354" transform="scale(0.00048828125,-0.00048828125)">
   <path d="M 8,1128 L 1137,1128 1137,0 8,0 8,1128 Z"/>
  </g>
  <g id="bullet-char-template-10146" transform="scale(0.00048828125,-0.00048828125)">
   <path d="M 174,0 L 602,739 174,1481 1456,739 174,0 Z M 1358,739 L 309,1346 659,739 1358,739 Z"/>
  </g>
  <g id="bullet-char-template-10132" transform="scale(0.00048828125,-0.00048828125)">
   <path d="M 2015,739 L 1276,0 717,0 1260,543 174,543 174,936 1260,936 717,1481 1274,1481 2015,739 Z"/>
  </g>
  <g id="bullet-char-template-10007" transform="scale(0.00048828125,-0.00048828125)">
   <path d="M 0,-2 C -7,14 -16,27 -25,37 L 356,567 C 262,823 215,952 215,954 215,979 228,992 255,992 264,992 276,990 289,987 310,991 331,999 354,1012 L 381,999 492,748 772,1049 836,1024 860,1049 C 881,1039 901,1025 922,1006 886,937 835,863 770,784 769,783 710,716 594,584 L 774,223 C 774,196 753,168 711,139 L 727,119 C 717,90 699,76 672,76 641,76 570,178 457,381 L 164,-76 C 142,-110 111,-127 72,-127 30,-127 9,-110 8,-76 1,-67 -2,-52 -2,-32 -2,-23 -1,-13 0,-2 Z"/>
  </g>
  <g id="bullet-char-template-10004" transform="scale(0.00048828125,-0.00048828125)">
   <path d="M 285,-33 C 182,-33 111,30 74,156 52,228 41,333 41,471 41,549 55,616 82,672 116,743 169,778 240,778 293,778 328,747 346,684 L 369,508 C 377,444 397,411 428,410 L 1163,1116 C 1174,1127 1196,1133 1229,1133 1271,1133 1292,1118 1292,1087 L 1292,965 C 1292,929 1282,901 1262,881 L 442,47 C 390,-6 338,-33 285,-33 Z"/>
  </g>
  <g id="bullet-char-template-9679" transform="scale(0.00048828125,-0.00048828125)">
   <path d="M 813,0 C 632,0 489,54 383,161 276,268 223,411 223,592 223,773 276,916 383,1023 489,1130 632,1184 813,1184 992,1184 1136,1130 1245,1023 1353,916 1407,772 1407,592 1407,412 1353,268 1245,161 1136,54 992,0 813,0 Z"/>
  </g>
  <g id="bullet-char-template-8226" transform="scale(0.00048828125,-0.00048828125)">
   <path d="M 346,457 C 273,457 209,483 155,535 101,586 74,649 74,723 74,796 101,859 155,911 209,963 273,989 346,989 419,989 480,963 531,910 582,859 608,796 608,723 608,648 583,586 532,535 482,483 420,457 346,457 Z"/>
  </g>
  <g id="bullet-char-template-8211" transform="scale(0.00048828125,-0.00048828125)">
   <path d="M -4,459 L 1135,459 1135,606 -4,606 -4,459 Z"/>
  </g>
  <g id="bullet-char-template-61548" transform="scale(0.00048828125,-0.00048828125)">
   <path d="M 173,740 C 173,903 231,1043 346,1159 462,1274 601,1332 765,1332 928,1332 1067,1274 1183,1159 1299,1043 1357,903 1357,740 1357,577 1299,437 1183,322 1067,206 928,148 765,148 601,148 462,206 346,322 231,437 173,577 173,740 Z"/>
  </g>
 </defs>
 <g>
  <g id="id2" class="Master_Slide">
   <g id="bg-id2" class="Background"/>
   <g id="bo-id2" class="BackgroundObjects"/>
  </g>
 </g>
 <g class="SlideGroup">
  <g>
   <g id="container-id1">
    <g id="id1" class="Slide" clip-path="url(#presentation_clip_path)">
     <g class="Page">
      <g id="bg-id1" class="Background">
       <defs>
        <mask id="mask1">
         <g>
          <defs>
           <pattern id="pattern1" x="0" y="0" width="5000" height="5000" patternUnits="userSpaceOnUse">
            <g transform="translate(0,0)">
             <defs>
              <clipPath id="clip_path_1" clipPathUnits="userSpaceOnUse">
               <path d="M 0,0 L 5004,0 5004,5004 0,5004 0,0 Z"/>
              </clipPath>
             </defs>
             <g clip-path="url(#clip_path_1)">
              <path fill="rgb(0,0,0)" stroke="none" d="M -1,-1 L 5000,-1 5000,5000 -1,5000 -1,-1 Z M 133,133 L 4865,133 4865,4865 133,4865 133,133 Z"/>
              <path fill="rgb(1,1,1)" stroke="none" d="M 133,133 L 4865,133 4865,4865 133,4865 133,133 Z M 142,142 L 4856,142 4856,4856 142,4856 142,142 Z"/>
              <path fill="rgb(2,2,2)" stroke="none" d="M 142,142 L 4856,142 4856,4856 142,4856 142,142 Z M 151,151 L 4847,151 4847,4847 151,4847 151,151 Z"/>
              <path fill="rgb(3,3,3)" stroke="none" d="M 151,151 L 4847,151 4847,4847 151,4847 151,151 Z M 161,161 L 4837,161 4837,4837 161,4837 161,161 Z"/>
              <path fill="rgb(4,4,4)" stroke="none" d="M 161,161 L 4837,161 4837,4837 161,4837 161,161 Z M 170,170 L 4828,170 4828,4828 170,4828 170,170 Z"/>
              <path fill="rgb(5,5,5)" stroke="none" d="M 170,170 L 4828,170 4828,4828 170,4828 170,170 Z M 179,179 L 4819,179 4819,4819 179,4819 179,179 Z"/>
              <path fill="rgb(6,6,6)" stroke="none" d="M 179,179 L 4819,179 4819,4819 179,4819 179,179 Z M 189,189 L 4809,189 4809,4809 189,4809 189,189 Z"/>
              <path fill="rgb(7,7,7)" stroke="none" d="M 189,189 L 4809,189 4809,4809 189,4809 189,189 Z M 198,198 L 4800,198 4800,4800 198,4800 198,198 Z"/>
              <path fill="rgb(8,8,8)" stroke="none" d="M 198,198 L 4800,198 4800,4800 198,4800 198,198 Z M 207,207 L 4791,207 4791,4791 207,4791 207,207 Z"/>
              <path fill="rgb(9,9,9)" stroke="none" d="M 207,207 L 4791,207 4791,4791 207,4791 207,207 Z M 217,217 L 4781,217 4781,4781 217,4781 217,217 Z"/>
              <path fill="rgb(10,10,10)" stroke="none" d="M 217,217 L 4781,217 4781,4781 217,4781 217,217 Z M 226,226 L 4772,226 4772,4772 226,4772 226,226 Z"/>
              <path fill="rgb(11,11,11)" stroke="none" d="M 226,226 L 4772,226 4772,4772 226,4772 226,226 Z M 235,235 L 4763,235 4763,4763 235,4763 235,235 Z"/>
              <path fill="rgb(12,12,12)" stroke="none" d="M 235,235 L 4763,235 4763,4763 235,4763 235,235 Z M 245,245 L 4753,245 4753,4753 245,4753 245,245 Z"/>
              <path fill="rgb(13,13,13)" stroke="none" d="M 245,245 L 4753,245 4753,4753 245,4753 245,245 Z M 254,254 L 4744,254 4744,4744 254,4744 254,254 Z"/>
              <path fill="rgb(14,14,14)" stroke="none" d="M 254,254 L 4744,254 4744,4744 254,4744 254,254 Z M 263,263 L 4735,263 4735,4735 263,4735 263,263 Z"/>
              <path fill="rgb(15,15,15)" stroke="none" d="M 263,263 L 4735,263 4735,4735 263,4735 263,263 Z M 273,273 L 4725,273 4725,4725 273,4725 273,273 Z"/>
              <path fill="rgb(16,16,16)" stroke="none" d="M 273,273 L 4725,273 4725,4725 273,4725 273,273 Z M 282,282 L 4716,282 4716,4716 282,4716 282,282 Z"/>
              <path fill="rgb(17,17,17)" stroke="none" d="M 282,282 L 4716,282 4716,4716 282,4716 282,282 Z M 291,291 L 4707,291 4707,4707 291,4707 291,291 Z"/>
              <path fill="rgb(18,18,18)" stroke="none" d="M 291,291 L 4707,291 4707,4707 291,4707 291,291 Z M 301,301 L 4697,301 4697,4697 301,4697 301,301 Z"/>
              <path fill="rgb(19,19,19)" stroke="none" d="M 301,301 L 4697,301 4697,4697 301,4697 301,301 Z M 310,310 L 4688,310 4688,4688 310,4688 310,310 Z"/>
              <path fill="rgb(20,20,20)" stroke="none" d="M 310,310 L 4688,310 4688,4688 310,4688 310,310 Z M 319,319 L 4679,319 4679,4679 319,4679 319,319 Z"/>
              <path fill="rgb(21,21,21)" stroke="none" d="M 319,319 L 4679,319 4679,4679 319,4679 319,319 Z M 328,328 L 4670,328 4670,4670 328,4670 328,328 Z"/>
              <path fill="rgb(22,22,22)" stroke="none" d="M 328,328 L 4670,328 4670,4670 328,4670 328,328 Z M 338,338 L 4660,338 4660,4660 338,4660 338,338 Z"/>
              <path fill="rgb(23,23,23)" stroke="none" d="M 338,338 L 4660,338 4660,4660 338,4660 338,338 Z M 347,347 L 4651,347 4651,4651 347,4651 347,347 Z"/>
              <path fill="rgb(24,24,24)" stroke="none" d="M 347,347 L 4651,347 4651,4651 347,4651 347,347 Z M 356,356 L 4642,356 4642,4642 356,4642 356,356 Z"/>
              <path fill="rgb(25,25,25)" stroke="none" d="M 356,356 L 4642,356 4642,4642 356,4642 356,356 Z M 366,366 L 4632,366 4632,4632 366,4632 366,366 Z"/>
              <path fill="rgb(26,26,26)" stroke="none" d="M 366,366 L 4632,366 4632,4632 366,4632 366,366 Z M 375,375 L 4623,375 4623,4623 375,4623 375,375 Z"/>
              <path fill="rgb(27,27,27)" stroke="none" d="M 375,375 L 4623,375 4623,4623 375,4623 375,375 Z M 384,384 L 4614,384 4614,4614 384,4614 384,384 Z"/>
              <path fill="rgb(28,28,28)" stroke="none" d="M 384,384 L 4614,384 4614,4614 384,4614 384,384 Z M 394,394 L 4604,394 4604,4604 394,4604 394,394 Z"/>
              <path fill="rgb(29,29,29)" stroke="none" d="M 394,394 L 4604,394 4604,4604 394,4604 394,394 Z M 403,403 L 4595,403 4595,4595 403,4595 403,403 Z"/>
              <path fill="rgb(30,30,30)" stroke="none" d="M 403,403 L 4595,403 4595,4595 403,4595 403,403 Z M 412,412 L 4586,412 4586,4586 412,4586 412,412 Z"/>
              <path fill="rgb(31,31,31)" stroke="none" d="M 412,412 L 4586,412 4586,4586 412,4586 412,412 Z M 422,422 L 4576,422 4576,4576 422,4576 422,422 Z"/>
              <path fill="rgb(32,32,32)" stroke="none" d="M 422,422 L 4576,422 4576,4576 422,4576 422,422 Z M 431,431 L 4567,431 4567,4567 431,4567 431,431 Z"/>
              <path fill="rgb(33,33,33)" stroke="none" d="M 431,431 L 4567,431 4567,4567 431,4567 431,431 Z M 440,440 L 4558,440 4558,4558 440,4558 440,440 Z"/>
              <path fill="rgb(34,34,34)" stroke="none" d="M 440,440 L 4558,440 4558,4558 440,4558 440,440 Z M 450,450 L 4548,450 4548,4548 450,4548 450,450 Z"/>
              <path fill="rgb(35,35,35)" stroke="none" d="M 450,450 L 4548,450 4548,4548 450,4548 450,450 Z M 459,459 L 4539,459 4539,4539 459,4539 459,459 Z"/>
              <path fill="rgb(36,36,36)" stroke="none" d="M 459,459 L 4539,459 4539,4539 459,4539 459,459 Z M 468,468 L 4530,468 4530,4530 468,4530 468,468 Z"/>
              <path fill="rgb(37,37,37)" stroke="none" d="M 468,468 L 4530,468 4530,4530 468,4530 468,468 Z M 478,478 L 4520,478 4520,4520 478,4520 478,478 Z"/>
              <path fill="rgb(38,38,38)" stroke="none" d="M 478,478 L 4520,478 4520,4520 478,4520 478,478 Z M 487,487 L 4511,487 4511,4511 487,4511 487,487 Z"/>
              <path fill="rgb(39,39,39)" stroke="none" d="M 487,487 L 4511,487 4511,4511 487,4511 487,487 Z M 496,496 L 4502,496 4502,4502 496,4502 496,496 Z"/>
              <path fill="rgb(40,40,40)" stroke="none" d="M 496,496 L 4502,496 4502,4502 496,4502 496,496 Z M 506,506 L 4492,506 4492,4492 506,4492 506,506 Z"/>
              <path fill="rgb(41,41,41)" stroke="none" d="M 506,506 L 4492,506 4492,4492 506,4492 506,506 Z M 515,515 L 4483,515 4483,4483 515,4483 515,515 Z"/>
              <path fill="rgb(42,42,42)" stroke="none" d="M 515,515 L 4483,515 4483,4483 515,4483 515,515 Z M 524,524 L 4474,524 4474,4474 524,4474 524,524 Z"/>
              <path fill="rgb(43,43,43)" stroke="none" d="M 524,524 L 4474,524 4474,4474 524,4474 524,524 Z M 533,533 L 4465,533 4465,4465 533,4465 533,533 Z"/>
              <path fill="rgb(44,44,44)" stroke="none" d="M 533,533 L 4465,533 4465,4465 533,4465 533,533 Z M 543,543 L 4455,543 4455,4455 543,4455 543,543 Z"/>
              <path fill="rgb(45,45,45)" stroke="none" d="M 543,543 L 4455,543 4455,4455 543,4455 543,543 Z M 552,552 L 4446,552 4446,4446 552,4446 552,552 Z"/>
              <path fill="rgb(46,46,46)" stroke="none" d="M 552,552 L 4446,552 4446,4446 552,4446 552,552 Z M 561,561 L 4437,561 4437,4437 561,4437 561,561 Z"/>
              <path fill="rgb(47,47,47)" stroke="none" d="M 561,561 L 4437,561 4437,4437 561,4437 561,561 Z M 571,571 L 4427,571 4427,4427 571,4427 571,571 Z"/>
              <path fill="rgb(48,48,48)" stroke="none" d="M 571,571 L 4427,571 4427,4427 571,4427 571,571 Z M 580,580 L 4418,580 4418,4418 580,4418 580,580 Z"/>
              <path fill="rgb(49,49,49)" stroke="none" d="M 580,580 L 4418,580 4418,4418 580,4418 580,580 Z M 589,589 L 4409,589 4409,4409 589,4409 589,589 Z"/>
              <path fill="rgb(50,50,50)" stroke="none" d="M 589,589 L 4409,589 4409,4409 589,4409 589,589 Z M 599,599 L 4399,599 4399,4399 599,4399 599,599 Z"/>
              <path fill="rgb(51,51,51)" stroke="none" d="M 599,599 L 4399,599 4399,4399 599,4399 599,599 Z M 608,608 L 4390,608 4390,4390 608,4390 608,608 Z"/>
              <path fill="rgb(52,52,52)" stroke="none" d="M 608,608 L 4390,608 4390,4390 608,4390 608,608 Z M 617,617 L 4381,617 4381,4381 617,4381 617,617 Z"/>
              <path fill="rgb(53,53,53)" stroke="none" d="M 617,617 L 4381,617 4381,4381 617,4381 617,617 Z M 627,627 L 4371,627 4371,4371 627,4371 627,627 Z"/>
              <path fill="rgb(54,54,54)" stroke="none" d="M 627,627 L 4371,627 4371,4371 627,4371 627,627 Z M 636,636 L 4362,636 4362,4362 636,4362 636,636 Z"/>
              <path fill="rgb(55,55,55)" stroke="none" d="M 636,636 L 4362,636 4362,4362 636,4362 636,636 Z M 645,645 L 4353,645 4353,4353 645,4353 645,645 Z"/>
              <path fill="rgb(56,56,56)" stroke="none" d="M 645,645 L 4353,645 4353,4353 645,4353 645,645 Z M 655,655 L 4343,655 4343,4343 655,4343 655,655 Z"/>
              <path fill="rgb(57,57,57)" stroke="none" d="M 655,655 L 4343,655 4343,4343 655,4343 655,655 Z M 664,664 L 4334,664 4334,4334 664,4334 664,664 Z"/>
              <path fill="rgb(58,58,58)" stroke="none" d="M 664,664 L 4334,664 4334,4334 664,4334 664,664 Z M 673,673 L 4325,673 4325,4325 673,4325 673,673 Z"/>
              <path fill="rgb(59,59,59)" stroke="none" d="M 673,673 L 4325,673 4325,4325 673,4325 673,673 Z M 683,683 L 4315,683 4315,4315 683,4315 683,683 Z"/>
              <path fill="rgb(60,60,60)" stroke="none" d="M 683,683 L 4315,683 4315,4315 683,4315 683,683 Z M 692,692 L 4306,692 4306,4306 692,4306 692,692 Z"/>
              <path fill="rgb(61,61,61)" stroke="none" d="M 692,692 L 4306,692 4306,4306 692,4306 692,692 Z M 701,701 L 4297,701 4297,4297 701,4297 701,701 Z"/>
              <path fill="rgb(62,62,62)" stroke="none" d="M 701,701 L 4297,701 4297,4297 701,4297 701,701 Z M 711,711 L 4287,711 4287,4287 711,4287 711,711 Z"/>
              <path fill="rgb(63,63,63)" stroke="none" d="M 711,711 L 4287,711 4287,4287 711,4287 711,711 Z M 720,720 L 4278,720 4278,4278 720,4278 720,720 Z"/>
              <path fill="rgb(64,64,64)" stroke="none" d="M 720,720 L 4278,720 4278,4278 720,4278 720,720 Z M 729,729 L 4269,729 4269,4269 729,4269 729,729 Z"/>
              <path fill="rgb(65,65,65)" stroke="none" d="M 729,729 L 4269,729 4269,4269 729,4269 729,729 Z M 738,738 L 4260,738 4260,4260 738,4260 738,738 Z"/>
              <path fill="rgb(66,66,66)" stroke="none" d="M 738,738 L 4260,738 4260,4260 738,4260 738,738 Z M 748,748 L 4250,748 4250,4250 748,4250 748,748 Z"/>
              <path fill="rgb(67,67,67)" stroke="none" d="M 748,748 L 4250,748 4250,4250 748,4250 748,748 Z M 757,757 L 4241,757 4241,4241 757,4241 757,757 Z"/>
              <path fill="rgb(68,68,68)" stroke="none" d="M 757,757 L 4241,757 4241,4241 757,4241 757,757 Z M 766,766 L 4232,766 4232,4232 766,4232 766,766 Z"/>
              <path fill="rgb(69,69,69)" stroke="none" d="M 766,766 L 4232,766 4232,4232 766,4232 766,766 Z M 776,776 L 4222,776 4222,4222 776,4222 776,776 Z"/>
              <path fill="rgb(70,70,70)" stroke="none" d="M 776,776 L 4222,776 4222,4222 776,4222 776,776 Z M 785,785 L 4213,785 4213,4213 785,4213 785,785 Z"/>
              <path fill="rgb(71,71,71)" stroke="none" d="M 785,785 L 4213,785 4213,4213 785,4213 785,785 Z M 794,794 L 4204,794 4204,4204 794,4204 794,794 Z"/>
              <path fill="rgb(72,72,72)" stroke="none" d="M 794,794 L 4204,794 4204,4204 794,4204 794,794 Z M 804,804 L 4194,804 4194,4194 804,4194 804,804 Z"/>
              <path fill="rgb(73,73,73)" stroke="none" d="M 804,804 L 4194,804 4194,4194 804,4194 804,804 Z M 813,813 L 4185,813 4185,4185 813,4185 813,813 Z"/>
              <path fill="rgb(74,74,74)" stroke="none" d="M 813,813 L 4185,813 4185,4185 813,4185 813,813 Z M 822,822 L 4176,822 4176,4176 822,4176 822,822 Z"/>
              <path fill="rgb(75,75,75)" stroke="none" d="M 822,822 L 4176,822 4176,4176 822,4176 822,822 Z M 832,832 L 4166,832 4166,4166 832,4166 832,832 Z"/>
              <path fill="rgb(76,76,76)" stroke="none" d="M 832,832 L 4166,832 4166,4166 832,4166 832,832 Z M 841,841 L 4157,841 4157,4157 841,4157 841,841 Z"/>
              <path fill="rgb(77,77,77)" stroke="none" d="M 841,841 L 4157,841 4157,4157 841,4157 841,841 Z M 850,850 L 4148,850 4148,4148 850,4148 850,850 Z"/>
              <path fill="rgb(78,78,78)" stroke="none" d="M 850,850 L 4148,850 4148,4148 850,4148 850,850 Z M 860,860 L 4138,860 4138,4138 860,4138 860,860 Z"/>
              <path fill="rgb(79,79,79)" stroke="none" d="M 860,860 L 4138,860 4138,4138 860,4138 860,860 Z M 869,869 L 4129,869 4129,4129 869,4129 869,869 Z"/>
              <path fill="rgb(80,80,80)" stroke="none" d="M 869,869 L 4129,869 4129,4129 869,4129 869,869 Z M 878,878 L 4120,878 4120,4120 878,4120 878,878 Z"/>
              <path fill="rgb(81,81,81)" stroke="none" d="M 878,878 L 4120,878 4120,4120 878,4120 878,878 Z M 888,888 L 4110,888 4110,4110 888,4110 888,888 Z"/>
              <path fill="rgb(82,82,82)" stroke="none" d="M 888,888 L 4110,888 4110,4110 888,4110 888,888 Z M 897,897 L 4101,897 4101,4101 897,4101 897,897 Z"/>
              <path fill="rgb(83,83,83)" stroke="none" d="M 897,897 L 4101,897 4101,4101 897,4101 897,897 Z M 906,906 L 4092,906 4092,4092 906,4092 906,906 Z"/>
              <path fill="rgb(84,84,84)" stroke="none" d="M 906,906 L 4092,906 4092,4092 906,4092 906,906 Z M 916,916 L 4083,916 4083,4083 916,4083 916,916 Z"/>
              <path fill="rgb(85,85,85)" stroke="none" d="M 916,916 L 4083,916 4083,4083 916,4083 916,916 Z M 925,925 L 4073,925 4073,4073 925,4073 925,925 Z"/>
              <path fill="rgb(86,86,86)" stroke="none" d="M 925,925 L 4073,925 4073,4073 925,4073 925,925 Z M 934,934 L 4064,934 4064,4064 934,4064 934,934 Z"/>
              <path fill="rgb(87,87,87)" stroke="none" d="M 934,934 L 4064,934 4064,4064 934,4064 934,934 Z M 943,943 L 4055,943 4055,4055 943,4055 943,943 Z"/>
              <path fill="rgb(88,88,88)" stroke="none" d="M 943,943 L 4055,943 4055,4055 943,4055 943,943 Z M 953,953 L 4045,953 4045,4045 953,4045 953,953 Z"/>
              <path fill="rgb(89,89,89)" stroke="none" d="M 953,953 L 4045,953 4045,4045 953,4045 953,953 Z M 962,962 L 4036,962 4036,4036 962,4036 962,962 Z"/>
              <path fill="rgb(90,90,90)" stroke="none" d="M 962,962 L 4036,962 4036,4036 962,4036 962,962 Z M 971,971 L 4027,971 4027,4027 971,4027 971,971 Z"/>
              <path fill="rgb(91,91,91)" stroke="none" d="M 971,971 L 4027,971 4027,4027 971,4027 971,971 Z M 981,981 L 4017,981 4017,4017 981,4017 981,981 Z"/>
              <path fill="rgb(92,92,92)" stroke="none" d="M 981,981 L 4017,981 4017,4017 981,4017 981,981 Z M 990,990 L 4008,990 4008,4008 990,4008 990,990 Z"/>
              <path fill="rgb(93,93,93)" stroke="none" d="M 990,990 L 4008,990 4008,4008 990,4008 990,990 Z M 999,999 L 3999,999 3999,3999 999,3999 999,999 Z"/>
              <path fill="rgb(94,94,94)" stroke="none" d="M 999,999 L 3999,999 3999,3999 999,3999 999,999 Z M 1009,1009 L 3989,1009 3989,3989 1009,3989 1009,1009 Z"/>
              <path fill="rgb(95,95,95)" stroke="none" d="M 1009,1009 L 3989,1009 3989,3989 1009,3989 1009,1009 Z M 1018,1018 L 3980,1018 3980,3980 1018,3980 1018,1018 Z"/>
              <path fill="rgb(96,96,96)" stroke="none" d="M 1018,1018 L 3980,1018 3980,3980 1018,3980 1018,1018 Z M 1027,1027 L 3971,1027 3971,3971 1027,3971 1027,1027 Z"/>
              <path fill="rgb(97,97,97)" stroke="none" d="M 1027,1027 L 3971,1027 3971,3971 1027,3971 1027,1027 Z M 1037,1037 L 3961,1037 3961,3961 1037,3961 1037,1037 Z"/>
              <path fill="rgb(98,98,98)" stroke="none" d="M 1037,1037 L 3961,1037 3961,3961 1037,3961 1037,1037 Z M 1046,1046 L 3952,1046 3952,3952 1046,3952 1046,1046 Z"/>
              <path fill="rgb(99,99,99)" stroke="none" d="M 1046,1046 L 3952,1046 3952,3952 1046,3952 1046,1046 Z M 1055,1055 L 3943,1055 3943,3943 1055,3943 1055,1055 Z"/>
              <path fill="rgb(100,100,100)" stroke="none" d="M 1055,1055 L 3943,1055 3943,3943 1055,3943 1055,1055 Z M 1065,1065 L 3933,1065 3933,3933 1065,3933 1065,1065 Z"/>
              <path fill="rgb(101,101,101)" stroke="none" d="M 1065,1065 L 3933,1065 3933,3933 1065,3933 1065,1065 Z M 1074,1074 L 3924,1074 3924,3924 1074,3924 1074,1074 Z"/>
              <path fill="rgb(102,102,102)" stroke="none" d="M 1074,1074 L 3924,1074 3924,3924 1074,3924 1074,1074 Z M 1083,1083 L 3915,1083 3915,3915 1083,3915 1083,1083 Z"/>
              <path fill="rgb(103,103,103)" stroke="none" d="M 1083,1083 L 3915,1083 3915,3915 1083,3915 1083,1083 Z M 1093,1093 L 3905,1093 3905,3905 1093,3905 1093,1093 Z"/>
              <path fill="rgb(104,104,104)" stroke="none" d="M 1093,1093 L 3905,1093 3905,3905 1093,3905 1093,1093 Z M 1102,1102 L 3896,1102 3896,3896 1102,3896 1102,1102 Z"/>
              <path fill="rgb(105,105,105)" stroke="none" d="M 1102,1102 L 3896,1102 3896,3896 1102,3896 1102,1102 Z M 1111,1111 L 3887,1111 3887,3887 1111,3887 1111,1111 Z"/>
              <path fill="rgb(106,106,106)" stroke="none" d="M 1111,1111 L 3887,1111 3887,3887 1111,3887 1111,1111 Z M 1120,1120 L 3878,1120 3878,3878 1120,3878 1120,1120 Z"/>
              <path fill="rgb(107,107,107)" stroke="none" d="M 1120,1120 L 3878,1120 3878,3878 1120,3878 1120,1120 Z M 1130,1130 L 3868,1130 3868,3868 1130,3868 1130,1130 Z"/>
              <path fill="rgb(108,108,108)" stroke="none" d="M 1130,1130 L 3868,1130 3868,3868 1130,3868 1130,1130 Z M 1139,1139 L 3859,1139 3859,3859 1139,3859 1139,1139 Z"/>
              <path fill="rgb(109,109,109)" stroke="none" d="M 1139,1139 L 3859,1139 3859,3859 1139,3859 1139,1139 Z M 1148,1148 L 3850,1148 3850,3850 1148,3850 1148,1148 Z"/>
              <path fill="rgb(110,110,110)" stroke="none" d="M 1148,1148 L 3850,1148 3850,3850 1148,3850 1148,1148 Z M 1158,1158 L 3840,1158 3840,3840 1158,3840 1158,1158 Z"/>
              <path fill="rgb(111,111,111)" stroke="none" d="M 1158,1158 L 3840,1158 3840,3840 1158,3840 1158,1158 Z M 1167,1167 L 3831,1167 3831,3831 1167,3831 1167,1167 Z"/>
              <path fill="rgb(112,112,112)" stroke="none" d="M 1167,1167 L 3831,1167 3831,3831 1167,3831 1167,1167 Z M 1176,1176 L 3822,1176 3822,3822 1176,3822 1176,1176 Z"/>
              <path fill="rgb(113,113,113)" stroke="none" d="M 1176,1176 L 3822,1176 3822,3822 1176,3822 1176,1176 Z M 1186,1186 L 3812,1186 3812,3812 1186,3812 1186,1186 Z"/>
              <path fill="rgb(114,114,114)" stroke="none" d="M 1186,1186 L 3812,1186 3812,3812 1186,3812 1186,1186 Z M 1195,1195 L 3803,1195 3803,3803 1195,3803 1195,1195 Z"/>
              <path fill="rgb(115,115,115)" stroke="none" d="M 1195,1195 L 3803,1195 3803,3803 1195,3803 1195,1195 Z M 1204,1204 L 3794,1204 3794,3794 1204,3794 1204,1204 Z"/>
              <path fill="rgb(116,116,116)" stroke="none" d="M 1204,1204 L 3794,1204 3794,3794 1204,3794 1204,1204 Z M 1214,1214 L 3784,1214 3784,3784 1214,3784 1214,1214 Z"/>
              <path fill="rgb(117,117,117)" stroke="none" d="M 1214,1214 L 3784,1214 3784,3784 1214,3784 1214,1214 Z M 1223,1223 L 3775,1223 3775,3775 1223,3775 1223,1223 Z"/>
              <path fill="rgb(118,118,118)" stroke="none" d="M 1223,1223 L 3775,1223 3775,3775 1223,3775 1223,1223 Z M 1232,1232 L 3766,1232 3766,3766 1232,3766 1232,1232 Z"/>
              <path fill="rgb(119,119,119)" stroke="none" d="M 1232,1232 L 3766,1232 3766,3766 1232,3766 1232,1232 Z M 1242,1242 L 3756,1242 3756,3756 1242,3756 1242,1242 Z"/>
              <path fill="rgb(120,120,120)" stroke="none" d="M 1242,1242 L 3756,1242 3756,3756 1242,3756 1242,1242 Z M 1251,1251 L 3747,1251 3747,3747 1251,3747 1251,1251 Z"/>
              <path fill="rgb(121,121,121)" stroke="none" d="M 1251,1251 L 3747,1251 3747,3747 1251,3747 1251,1251 Z M 1260,1260 L 3738,1260 3738,3738 1260,3738 1260,1260 Z"/>
              <path fill="rgb(122,122,122)" stroke="none" d="M 1260,1260 L 3738,1260 3738,3738 1260,3738 1260,1260 Z M 1270,1270 L 3728,1270 3728,3728 1270,3728 1270,1270 Z"/>
              <path fill="rgb(123,123,123)" stroke="none" d="M 1270,1270 L 3728,1270 3728,3728 1270,3728 1270,1270 Z M 1279,1279 L 3719,1279 3719,3719 1279,3719 1279,1279 Z"/>
              <path fill="rgb(124,124,124)" stroke="none" d="M 1279,1279 L 3719,1279 3719,3719 1279,3719 1279,1279 Z M 1288,1288 L 3710,1288 3710,3710 1288,3710 1288,1288 Z"/>
              <path fill="rgb(125,125,125)" stroke="none" d="M 1288,1288 L 3710,1288 3710,3710 1288,3710 1288,1288 Z M 1298,1298 L 3700,1298 3700,3700 1298,3700 1298,1298 Z"/>
              <path fill="rgb(126,126,126)" stroke="none" d="M 1298,1298 L 3700,1298 3700,3700 1298,3700 1298,1298 Z M 1307,1307 L 3691,1307 3691,3691 1307,3691 1307,1307 Z"/>
              <path fill="rgb(127,127,127)" stroke="none" d="M 1307,1307 L 3691,1307 3691,3691 1307,3691 1307,1307 Z M 1316,1316 L 3682,1316 3682,3682 1316,3682 1316,1316 Z"/>
              <path fill="rgb(128,128,128)" stroke="none" d="M 1316,1316 L 3682,1316 3682,3682 1316,3682 1316,1316 Z M 1325,1325 L 3673,1325 3673,3673 1325,3673 1325,1325 Z"/>
              <path fill="rgb(129,129,129)" stroke="none" d="M 1325,1325 L 3673,1325 3673,3673 1325,3673 1325,1325 Z M 1335,1335 L 3663,1335 3663,3663 1335,3663 1335,1335 Z"/>
              <path fill="rgb(130,130,130)" stroke="none" d="M 1335,1335 L 3663,1335 3663,3663 1335,3663 1335,1335 Z M 1344,1344 L 3654,1344 3654,3654 1344,3654 1344,1344 Z"/>
              <path fill="rgb(131,131,131)" stroke="none" d="M 1344,1344 L 3654,1344 3654,3654 1344,3654 1344,1344 Z M 1353,1353 L 3645,1353 3645,3645 1353,3645 1353,1353 Z"/>
              <path fill="rgb(132,132,132)" stroke="none" d="M 1353,1353 L 3645,1353 3645,3645 1353,3645 1353,1353 Z M 1363,1363 L 3635,1363 3635,3635 1363,3635 1363,1363 Z"/>
              <path fill="rgb(133,133,133)" stroke="none" d="M 1363,1363 L 3635,1363 3635,3635 1363,3635 1363,1363 Z M 1372,1372 L 3626,1372 3626,3626 1372,3626 1372,1372 Z"/>
              <path fill="rgb(134,134,134)" stroke="none" d="M 1372,1372 L 3626,1372 3626,3626 1372,3626 1372,1372 Z M 1381,1381 L 3617,1381 3617,3617 1381,3617 1381,1381 Z"/>
              <path fill="rgb(135,135,135)" stroke="none" d="M 1381,1381 L 3617,1381 3617,3617 1381,3617 1381,1381 Z M 1391,1391 L 3607,1391 3607,3607 1391,3607 1391,1391 Z"/>
              <path fill="rgb(136,136,136)" stroke="none" d="M 1391,1391 L 3607,1391 3607,3607 1391,3607 1391,1391 Z M 1400,1400 L 3598,1400 3598,3598 1400,3598 1400,1400 Z"/>
              <path fill="rgb(137,137,137)" stroke="none" d="M 1400,1400 L 3598,1400 3598,3598 1400,3598 1400,1400 Z M 1409,1409 L 3589,1409 3589,3589 1409,3589 1409,1409 Z"/>
              <path fill="rgb(138,138,138)" stroke="none" d="M 1409,1409 L 3589,1409 3589,3589 1409,3589 1409,1409 Z M 1419,1419 L 3579,1419 3579,3579 1419,3579 1419,1419 Z"/>
              <path fill="rgb(139,139,139)" stroke="none" d="M 1419,1419 L 3579,1419 3579,3579 1419,3579 1419,1419 Z M 1428,1428 L 3570,1428 3570,3570 1428,3570 1428,1428 Z"/>
              <path fill="rgb(140,140,140)" stroke="none" d="M 1428,1428 L 3570,1428 3570,3570 1428,3570 1428,1428 Z M 1437,1437 L 3561,1437 3561,3561 1437,3561 1437,1437 Z"/>
              <path fill="rgb(141,141,141)" stroke="none" d="M 1437,1437 L 3561,1437 3561,3561 1437,3561 1437,1437 Z M 1447,1447 L 3551,1447 3551,3551 1447,3551 1447,1447 Z"/>
              <path fill="rgb(142,142,142)" stroke="none" d="M 1447,1447 L 3551,1447 3551,3551 1447,3551 1447,1447 Z M 1456,1456 L 3542,1456 3542,3542 1456,3542 1456,1456 Z"/>
              <path fill="rgb(143,143,143)" stroke="none" d="M 1456,1456 L 3542,1456 3542,3542 1456,3542 1456,1456 Z M 1465,1465 L 3533,1465 3533,3533 1465,3533 1465,1465 Z"/>
              <path fill="rgb(144,144,144)" stroke="none" d="M 1465,1465 L 3533,1465 3533,3533 1465,3533 1465,1465 Z M 1475,1475 L 3523,1475 3523,3523 1475,3523 1475,1475 Z"/>
              <path fill="rgb(145,145,145)" stroke="none" d="M 1475,1475 L 3523,1475 3523,3523 1475,3523 1475,1475 Z M 1484,1484 L 3514,1484 3514,3514 1484,3514 1484,1484 Z"/>
              <path fill="rgb(146,146,146)" stroke="none" d="M 1484,1484 L 3514,1484 3514,3514 1484,3514 1484,1484 Z M 1493,1493 L 3505,1493 3505,3505 1493,3505 1493,1493 Z"/>
              <path fill="rgb(147,147,147)" stroke="none" d="M 1493,1493 L 3505,1493 3505,3505 1493,3505 1493,1493 Z M 1503,1503 L 3495,1503 3495,3495 1503,3495 1503,1503 Z"/>
              <path fill="rgb(148,148,148)" stroke="none" d="M 1503,1503 L 3495,1503 3495,3495 1503,3495 1503,1503 Z M 1512,1512 L 3486,1512 3486,3486 1512,3486 1512,1512 Z"/>
              <path fill="rgb(149,149,149)" stroke="none" d="M 1512,1512 L 3486,1512 3486,3486 1512,3486 1512,1512 Z M 1521,1521 L 3477,1521 3477,3477 1521,3477 1521,1521 Z"/>
              <path fill="rgb(150,150,150)" stroke="none" d="M 1521,1521 L 3477,1521 3477,3477 1521,3477 1521,1521 Z M 1530,1530 L 3468,1530 3468,3468 1530,3468 1530,1530 Z"/>
              <path fill="rgb(151,151,151)" stroke="none" d="M 1530,1530 L 3468,1530 3468,3468 1530,3468 1530,1530 Z M 1540,1540 L 3458,1540 3458,3458 1540,3458 1540,1540 Z"/>
              <path fill="rgb(152,152,152)" stroke="none" d="M 1540,1540 L 3458,1540 3458,3458 1540,3458 1540,1540 Z M 1549,1549 L 3449,1549 3449,3449 1549,3449 1549,1549 Z"/>
              <path fill="rgb(153,153,153)" stroke="none" d="M 1549,1549 L 3449,1549 3449,3449 1549,3449 1549,1549 Z M 1558,1558 L 3440,1558 3440,3440 1558,3440 1558,1558 Z"/>
              <path fill="rgb(154,154,154)" stroke="none" d="M 1558,1558 L 3440,1558 3440,3440 1558,3440 1558,1558 Z M 1568,1568 L 3430,1568 3430,3430 1568,3430 1568,1568 Z"/>
              <path fill="rgb(155,155,155)" stroke="none" d="M 1568,1568 L 3430,1568 3430,3430 1568,3430 1568,1568 Z M 1577,1577 L 3421,1577 3421,3421 1577,3421 1577,1577 Z"/>
              <path fill="rgb(156,156,156)" stroke="none" d="M 1577,1577 L 3421,1577 3421,3421 1577,3421 1577,1577 Z M 1586,1586 L 3412,1586 3412,3412 1586,3412 1586,1586 Z"/>
              <path fill="rgb(157,157,157)" stroke="none" d="M 1586,1586 L 3412,1586 3412,3412 1586,3412 1586,1586 Z M 1596,1596 L 3402,1596 3402,3402 1596,3402 1596,1596 Z"/>
              <path fill="rgb(158,158,158)" stroke="none" d="M 1596,1596 L 3402,1596 3402,3402 1596,3402 1596,1596 Z M 1605,1605 L 3393,1605 3393,3393 1605,3393 1605,1605 Z"/>
              <path fill="rgb(159,159,159)" stroke="none" d="M 1605,1605 L 3393,1605 3393,3393 1605,3393 1605,1605 Z M 1614,1614 L 3384,1614 3384,3384 1614,3384 1614,1614 Z"/>
              <path fill="rgb(160,160,160)" stroke="none" d="M 1614,1614 L 3384,1614 3384,3384 1614,3384 1614,1614 Z M 1624,1624 L 3374,1624 3374,3374 1624,3374 1624,1624 Z"/>
              <path fill="rgb(161,161,161)" stroke="none" d="M 1624,1624 L 3374,1624 3374,3374 1624,3374 1624,1624 Z M 1633,1633 L 3365,1633 3365,3365 1633,3365 1633,1633 Z"/>
              <path fill="rgb(162,162,162)" stroke="none" d="M 1633,1633 L 3365,1633 3365,3365 1633,3365 1633,1633 Z M 1642,1642 L 3356,1642 3356,3356 1642,3356 1642,1642 Z"/>
              <path fill="rgb(163,163,163)" stroke="none" d="M 1642,1642 L 3356,1642 3356,3356 1642,3356 1642,1642 Z M 1652,1652 L 3346,1652 3346,3346 1652,3346 1652,1652 Z"/>
              <path fill="rgb(164,164,164)" stroke="none" d="M 1652,1652 L 3346,1652 3346,3346 1652,3346 1652,1652 Z M 1661,1661 L 3337,1661 3337,3337 1661,3337 1661,1661 Z"/>
              <path fill="rgb(165,165,165)" stroke="none" d="M 1661,1661 L 3337,1661 3337,3337 1661,3337 1661,1661 Z M 1670,1670 L 3328,1670 3328,3328 1670,3328 1670,1670 Z"/>
              <path fill="rgb(166,166,166)" stroke="none" d="M 1670,1670 L 3328,1670 3328,3328 1670,3328 1670,1670 Z M 1680,1680 L 3318,1680 3318,3318 1680,3318 1680,1680 Z"/>
              <path fill="rgb(167,167,167)" stroke="none" d="M 1680,1680 L 3318,1680 3318,3318 1680,3318 1680,1680 Z M 1689,1689 L 3309,1689 3309,3309 1689,3309 1689,1689 Z"/>
              <path fill="rgb(168,168,168)" stroke="none" d="M 1689,1689 L 3309,1689 3309,3309 1689,3309 1689,1689 Z M 1698,1698 L 3300,1698 3300,3300 1698,3300 1698,1698 Z"/>
              <path fill="rgb(169,169,169)" stroke="none" d="M 1698,1698 L 3300,1698 3300,3300 1698,3300 1698,1698 Z M 1707,1707 L 3291,1707 3291,3291 1707,3291 1707,1707 Z"/>
              <path fill="rgb(170,170,170)" stroke="none" d="M 1707,1707 L 3291,1707 3291,3291 1707,3291 1707,1707 Z M 1717,1717 L 3281,1717 3281,3281 1717,3281 1717,1717 Z"/>
              <path fill="rgb(171,171,171)" stroke="none" d="M 1717,1717 L 3281,1717 3281,3281 1717,3281 1717,1717 Z M 1726,1726 L 3272,1726 3272,3272 1726,3272 1726,1726 Z"/>
              <path fill="rgb(172,172,172)" stroke="none" d="M 1726,1726 L 3272,1726 3272,3272 1726,3272 1726,1726 Z M 1735,1735 L 3263,1735 3263,3263 1735,3263 1735,1735 Z"/>
              <path fill="rgb(173,173,173)" stroke="none" d="M 1735,1735 L 3263,1735 3263,3263 1735,3263 1735,1735 Z M 1745,1745 L 3253,1745 3253,3253 1745,3253 1745,1745 Z"/>
              <path fill="rgb(174,174,174)" stroke="none" d="M 1745,1745 L 3253,1745 3253,3253 1745,3253 1745,1745 Z M 1754,1754 L 3244,1754 3244,3244 1754,3244 1754,1754 Z"/>
              <path fill="rgb(175,175,175)" stroke="none" d="M 1754,1754 L 3244,1754 3244,3244 1754,3244 1754,1754 Z M 1763,1763 L 3235,1763 3235,3235 1763,3235 1763,1763 Z"/>
              <path fill="rgb(176,176,176)" stroke="none" d="M 1763,1763 L 3235,1763 3235,3235 1763,3235 1763,1763 Z M 1773,1773 L 3225,1773 3225,3225 1773,3225 1773,1773 Z"/>
              <path fill="rgb(177,177,177)" stroke="none" d="M 1773,1773 L 3225,1773 3225,3225 1773,3225 1773,1773 Z M 1782,1782 L 3216,1782 3216,3216 1782,3216 1782,1782 Z"/>
              <path fill="rgb(178,178,178)" stroke="none" d="M 1782,1782 L 3216,1782 3216,3216 1782,3216 1782,1782 Z M 1791,1791 L 3207,1791 3207,3207 1791,3207 1791,1791 Z"/>
              <path fill="rgb(179,179,179)" stroke="none" d="M 1791,1791 L 3207,1791 3207,3207 1791,3207 1791,1791 Z M 1801,1801 L 3197,1801 3197,3197 1801,3197 1801,1801 Z"/>
              <path fill="rgb(180,180,180)" stroke="none" d="M 1801,1801 L 3197,1801 3197,3197 1801,3197 1801,1801 Z M 1810,1810 L 3188,1810 3188,3188 1810,3188 1810,1810 Z"/>
              <path fill="rgb(181,181,181)" stroke="none" d="M 1810,1810 L 3188,1810 3188,3188 1810,3188 1810,1810 Z M 1819,1819 L 3179,1819 3179,3179 1819,3179 1819,1819 Z"/>
              <path fill="rgb(182,182,182)" stroke="none" d="M 1819,1819 L 3179,1819 3179,3179 1819,3179 1819,1819 Z M 1829,1829 L 3169,1829 3169,3169 1829,3169 1829,1829 Z"/>
              <path fill="rgb(183,183,183)" stroke="none" d="M 1829,1829 L 3169,1829 3169,3169 1829,3169 1829,1829 Z M 1838,1838 L 3160,1838 3160,3160 1838,3160 1838,1838 Z"/>
              <path fill="rgb(184,184,184)" stroke="none" d="M 1838,1838 L 3160,1838 3160,3160 1838,3160 1838,1838 Z M 1847,1847 L 3151,1847 3151,3151 1847,3151 1847,1847 Z"/>
              <path fill="rgb(185,185,185)" stroke="none" d="M 1847,1847 L 3151,1847 3151,3151 1847,3151 1847,1847 Z M 1857,1857 L 3141,1857 3141,3141 1857,3141 1857,1857 Z"/>
              <path fill="rgb(186,186,186)" stroke="none" d="M 1857,1857 L 3141,1857 3141,3141 1857,3141 1857,1857 Z M 1866,1866 L 3132,1866 3132,3132 1866,3132 1866,1866 Z"/>
              <path fill="rgb(187,187,187)" stroke="none" d="M 1866,1866 L 3132,1866 3132,3132 1866,3132 1866,1866 Z M 1875,1875 L 3123,1875 3123,3123 1875,3123 1875,1875 Z"/>
              <path fill="rgb(188,188,188)" stroke="none" d="M 1875,1875 L 3123,1875 3123,3123 1875,3123 1875,1875 Z M 1885,1885 L 3113,1885 3113,3113 1885,3113 1885,1885 Z"/>
              <path fill="rgb(189,189,189)" stroke="none" d="M 1885,1885 L 3113,1885 3113,3113 1885,3113 1885,1885 Z M 1894,1894 L 3104,1894 3104,3104 1894,3104 1894,1894 Z"/>
              <path fill="rgb(190,190,190)" stroke="none" d="M 1894,1894 L 3104,1894 3104,3104 1894,3104 1894,1894 Z M 1903,1903 L 3095,1903 3095,3095 1903,3095 1903,1903 Z"/>
              <path fill="rgb(191,191,191)" stroke="none" d="M 1903,1903 L 3095,1903 3095,3095 1903,3095 1903,1903 Z M 1912,1912 L 3086,1912 3086,3086 1912,3086 1912,1912 Z"/>
              <path fill="rgb(192,192,192)" stroke="none" d="M 1912,1912 L 3086,1912 3086,3086 1912,3086 1912,1912 Z M 1922,1922 L 3076,1922 3076,3076 1922,3076 1922,1922 Z"/>
              <path fill="rgb(193,193,193)" stroke="none" d="M 1922,1922 L 3076,1922 3076,3076 1922,3076 1922,1922 Z M 1931,1931 L 3067,1931 3067,3067 1931,3067 1931,1931 Z"/>
              <path fill="rgb(194,194,194)" stroke="none" d="M 1931,1931 L 3067,1931 3067,3067 1931,3067 1931,1931 Z M 1940,1940 L 3058,1940 3058,3058 1940,3058 1940,1940 Z"/>
              <path fill="rgb(195,195,195)" stroke="none" d="M 1940,1940 L 3058,1940 3058,3058 1940,3058 1940,1940 Z M 1950,1950 L 3048,1950 3048,3048 1950,3048 1950,1950 Z"/>
              <path fill="rgb(196,196,196)" stroke="none" d="M 1950,1950 L 3048,1950 3048,3048 1950,3048 1950,1950 Z M 1959,1959 L 3039,1959 3039,3039 1959,3039 1959,1959 Z"/>
              <path fill="rgb(197,197,197)" stroke="none" d="M 1959,1959 L 3039,1959 3039,3039 1959,3039 1959,1959 Z M 1968,1968 L 3030,1968 3030,3030 1968,3030 1968,1968 Z"/>
              <path fill="rgb(198,198,198)" stroke="none" d="M 1968,1968 L 3030,1968 3030,3030 1968,3030 1968,1968 Z M 1978,1978 L 3020,1978 3020,3020 1978,3020 1978,1978 Z"/>
              <path fill="rgb(199,199,199)" stroke="none" d="M 1978,1978 L 3020,1978 3020,3020 1978,3020 1978,1978 Z M 1987,1987 L 3011,1987 3011,3011 1987,3011 1987,1987 Z"/>
              <path fill="rgb(200,200,200)" stroke="none" d="M 1987,1987 L 3011,1987 3011,3011 1987,3011 1987,1987 Z M 1996,1996 L 3002,1996 3002,3002 1996,3002 1996,1996 Z"/>
              <path fill="rgb(201,201,201)" stroke="none" d="M 1996,1996 L 3002,1996 3002,3002 1996,3002 1996,1996 Z M 2006,2006 L 2992,2006 2992,2992 2006,2992 2006,2006 Z"/>
              <path fill="rgb(202,202,202)" stroke="none" d="M 2006,2006 L 2992,2006 2992,2992 2006,2992 2006,2006 Z M 2015,2015 L 2983,2015 2983,2983 2015,2983 2015,2015 Z"/>
              <path fill="rgb(203,203,203)" stroke="none" d="M 2015,2015 L 2983,2015 2983,2983 2015,2983 2015,2015 Z M 2024,2024 L 2974,2024 2974,2974 2024,2974 2024,2024 Z"/>
              <path fill="rgb(204,204,204)" stroke="none" d="M 2024,2024 L 2974,2024 2974,2974 2024,2974 2024,2024 Z M 2034,2034 L 2964,2034 2964,2964 2034,2964 2034,2034 Z"/>
              <path fill="rgb(205,205,205)" stroke="none" d="M 2034,2034 L 2964,2034 2964,2964 2034,2964 2034,2034 Z M 2043,2043 L 2955,2043 2955,2955 2043,2955 2043,2043 Z"/>
              <path fill="rgb(206,206,206)" stroke="none" d="M 2043,2043 L 2955,2043 2955,2955 2043,2955 2043,2043 Z M 2052,2052 L 2946,2052 2946,2946 2052,2946 2052,2052 Z"/>
              <path fill="rgb(207,207,207)" stroke="none" d="M 2052,2052 L 2946,2052 2946,2946 2052,2946 2052,2052 Z M 2062,2062 L 2936,2062 2936,2936 2062,2936 2062,2062 Z"/>
              <path fill="rgb(208,208,208)" stroke="none" d="M 2062,2062 L 2936,2062 2936,2936 2062,2936 2062,2062 Z M 2071,2071 L 2927,2071 2927,2927 2071,2927 2071,2071 Z"/>
              <path fill="rgb(209,209,209)" stroke="none" d="M 2071,2071 L 2927,2071 2927,2927 2071,2927 2071,2071 Z M 2080,2080 L 2918,2080 2918,2918 2080,2918 2080,2080 Z"/>
              <path fill="rgb(210,210,210)" stroke="none" d="M 2080,2080 L 2918,2080 2918,2918 2080,2918 2080,2080 Z M 2090,2090 L 2908,2090 2908,2908 2090,2908 2090,2090 Z"/>
              <path fill="rgb(211,211,211)" stroke="none" d="M 2090,2090 L 2908,2090 2908,2908 2090,2908 2090,2090 Z M 2099,2099 L 2899,2099 2899,2899 2099,2899 2099,2099 Z"/>
              <path fill="rgb(212,212,212)" stroke="none" d="M 2099,2099 L 2899,2099 2899,2899 2099,2899 2099,2099 Z M 2108,2108 L 2890,2108 2890,2890 2108,2890 2108,2108 Z"/>
              <path fill="rgb(213,213,213)" stroke="none" d="M 2108,2108 L 2890,2108 2890,2890 2108,2890 2108,2108 Z M 2117,2117 L 2881,2117 2881,2881 2117,2881 2117,2117 Z"/>
              <path fill="rgb(214,214,214)" stroke="none" d="M 2117,2117 L 2881,2117 2881,2881 2117,2881 2117,2117 Z M 2127,2127 L 2871,2127 2871,2871 2127,2871 2127,2127 Z"/>
              <path fill="rgb(215,215,215)" stroke="none" d="M 2127,2127 L 2871,2127 2871,2871 2127,2871 2127,2127 Z M 2136,2136 L 2862,2136 2862,2862 2136,2862 2136,2136 Z"/>
              <path fill="rgb(216,216,216)" stroke="none" d="M 2136,2136 L 2862,2136 2862,2862 2136,2862 2136,2136 Z M 2145,2145 L 2853,2145 2853,2853 2145,2853 2145,2145 Z"/>
              <path fill="rgb(217,217,217)" stroke="none" d="M 2145,2145 L 2853,2145 2853,2853 2145,2853 2145,2145 Z M 2155,2155 L 2843,2155 2843,2843 2155,2843 2155,2155 Z"/>
              <path fill="rgb(218,218,218)" stroke="none" d="M 2155,2155 L 2843,2155 2843,2843 2155,2843 2155,2155 Z M 2164,2164 L 2834,2164 2834,2834 2164,2834 2164,2164 Z"/>
              <path fill="rgb(219,219,219)" stroke="none" d="M 2164,2164 L 2834,2164 2834,2834 2164,2834 2164,2164 Z M 2173,2173 L 2825,2173 2825,2825 2173,2825 2173,2173 Z"/>
              <path fill="rgb(220,220,220)" stroke="none" d="M 2173,2173 L 2825,2173 2825,2825 2173,2825 2173,2173 Z M 2183,2183 L 2815,2183 2815,2815 2183,2815 2183,2183 Z"/>
              <path fill="rgb(221,221,221)" stroke="none" d="M 2183,2183 L 2815,2183 2815,2815 2183,2815 2183,2183 Z M 2192,2192 L 2806,2192 2806,2806 2192,2806 2192,2192 Z"/>
              <path fill="rgb(222,222,222)" stroke="none" d="M 2192,2192 L 2806,2192 2806,2806 2192,2806 2192,2192 Z M 2201,2201 L 2797,2201 2797,2797 2201,2797 2201,2201 Z"/>
              <path fill="rgb(223,223,223)" stroke="none" d="M 2201,2201 L 2797,2201 2797,2797 2201,2797 2201,2201 Z M 2211,2211 L 2787,2211 2787,2787 2211,2787 2211,2211 Z"/>
              <path fill="rgb(224,224,224)" stroke="none" d="M 2211,2211 L 2787,2211 2787,2787 2211,2787 2211,2211 Z M 2220,2220 L 2778,2220 2778,2778 2220,2778 2220,2220 Z"/>
              <path fill="rgb(225,225,225)" stroke="none" d="M 2220,2220 L 2778,2220 2778,2778 2220,2778 2220,2220 Z M 2229,2229 L 2769,2229 2769,2769 2229,2769 2229,2229 Z"/>
              <path fill="rgb(226,226,226)" stroke="none" d="M 2229,2229 L 2769,2229 2769,2769 2229,2769 2229,2229 Z M 2239,2239 L 2759,2239 2759,2759 2239,2759 2239,2239 Z"/>
              <path fill="rgb(227,227,227)" stroke="none" d="M 2239,2239 L 2759,2239 2759,2759 2239,2759 2239,2239 Z M 2248,2248 L 2750,2248 2750,2750 2248,2750 2248,2248 Z"/>
              <path fill="rgb(228,228,228)" stroke="none" d="M 2248,2248 L 2750,2248 2750,2750 2248,2750 2248,2248 Z M 2257,2257 L 2741,2257 2741,2741 2257,2741 2257,2257 Z"/>
              <path fill="rgb(229,229,229)" stroke="none" d="M 2257,2257 L 2741,2257 2741,2741 2257,2741 2257,2257 Z M 2267,2267 L 2731,2267 2731,2731 2267,2731 2267,2267 Z"/>
              <path fill="rgb(230,230,230)" stroke="none" d="M 2267,2267 L 2731,2267 2731,2731 2267,2731 2267,2267 Z M 2276,2276 L 2722,2276 2722,2722 2276,2722 2276,2276 Z"/>
              <path fill="rgb(231,231,231)" stroke="none" d="M 2276,2276 L 2722,2276 2722,2722 2276,2722 2276,2276 Z M 2285,2285 L 2713,2285 2713,2713 2285,2713 2285,2285 Z"/>
              <path fill="rgb(232,232,232)" stroke="none" d="M 2285,2285 L 2713,2285 2713,2713 2285,2713 2285,2285 Z M 2295,2295 L 2703,2295 2703,2703 2295,2703 2295,2295 Z"/>
              <path fill="rgb(233,233,233)" stroke="none" d="M 2295,2295 L 2703,2295 2703,2703 2295,2703 2295,2295 Z M 2304,2304 L 2694,2304 2694,2694 2304,2694 2304,2304 Z"/>
              <path fill="rgb(234,234,234)" stroke="none" d="M 2304,2304 L 2694,2304 2694,2694 2304,2694 2304,2304 Z M 2313,2313 L 2685,2313 2685,2685 2313,2685 2313,2313 Z"/>
              <path fill="rgb(235,235,235)" stroke="none" d="M 2313,2313 L 2685,2313 2685,2685 2313,2685 2313,2313 Z M 2322,2322 L 2676,2322 2676,2676 2322,2676 2322,2322 Z"/>
              <path fill="rgb(236,236,236)" stroke="none" d="M 2322,2322 L 2676,2322 2676,2676 2322,2676 2322,2322 Z M 2332,2332 L 2666,2332 2666,2666 2332,2666 2332,2332 Z"/>
              <path fill="rgb(237,237,237)" stroke="none" d="M 2332,2332 L 2666,2332 2666,2666 2332,2666 2332,2332 Z M 2341,2341 L 2657,2341 2657,2657 2341,2657 2341,2341 Z"/>
              <path fill="rgb(238,238,238)" stroke="none" d="M 2341,2341 L 2657,2341 2657,2657 2341,2657 2341,2341 Z M 2350,2350 L 2648,2350 2648,2648 2350,2648 2350,2350 Z"/>
              <path fill="rgb(239,239,239)" stroke="none" d="M 2350,2350 L 2648,2350 2648,2648 2350,2648 2350,2350 Z M 2360,2360 L 2638,2360 2638,2638 2360,2638 2360,2360 Z"/>
              <path fill="rgb(240,240,240)" stroke="none" d="M 2360,2360 L 2638,2360 2638,2638 2360,2638 2360,2360 Z M 2369,2369 L 2629,2369 2629,2629 2369,2629 2369,2369 Z"/>
              <path fill="rgb(241,241,241)" stroke="none" d="M 2369,2369 L 2629,2369 2629,2629 2369,2629 2369,2369 Z M 2378,2378 L 2620,2378 2620,2620 2378,2620 2378,2378 Z"/>
              <path fill="rgb(242,242,242)" stroke="none" d="M 2378,2378 L 2620,2378 2620,2620 2378,2620 2378,2378 Z M 2388,2388 L 2610,2388 2610,2610 2388,2610 2388,2388 Z"/>
              <path fill="rgb(243,243,243)" stroke="none" d="M 2388,2388 L 2610,2388 2610,2610 2388,2610 2388,2388 Z M 2397,2397 L 2601,2397 2601,2601 2397,2601 2397,2397 Z"/>
              <path fill="rgb(244,244,244)" stroke="none" d="M 2397,2397 L 2601,2397 2601,2601 2397,2601 2397,2397 Z M 2406,2406 L 2592,2406 2592,2592 2406,2592 2406,2406 Z"/>
              <path fill="rgb(245,245,245)" stroke="none" d="M 2406,2406 L 2592,2406 2592,2592 2406,2592 2406,2406 Z M 2416,2416 L 2582,2416 2582,2582 2416,2582 2416,2416 Z"/>
              <path fill="rgb(246,246,246)" stroke="none" d="M 2416,2416 L 2582,2416 2582,2582 2416,2582 2416,2416 Z M 2425,2425 L 2573,2425 2573,2573 2425,2573 2425,2425 Z"/>
              <path fill="rgb(247,247,247)" stroke="none" d="M 2425,2425 L 2573,2425 2573,2573 2425,2573 2425,2425 Z M 2434,2434 L 2564,2434 2564,2564 2434,2564 2434,2434 Z"/>
              <path fill="rgb(248,248,248)" stroke="none" d="M 2434,2434 L 2564,2434 2564,2564 2434,2564 2434,2434 Z M 2444,2444 L 2554,2444 2554,2554 2444,2554 2444,2444 Z"/>
              <path fill="rgb(249,249,249)" stroke="none" d="M 2444,2444 L 2554,2444 2554,2554 2444,2554 2444,2444 Z M 2453,2453 L 2545,2453 2545,2545 2453,2545 2453,2453 Z"/>
              <path fill="rgb(250,250,250)" stroke="none" d="M 2453,2453 L 2545,2453 2545,2545 2453,2545 2453,2453 Z M 2462,2462 L 2536,2462 2536,2536 2462,2536 2462,2462 Z"/>
              <path fill="rgb(251,251,251)" stroke="none" d="M 2462,2462 L 2536,2462 2536,2536 2462,2536 2462,2462 Z M 2472,2472 L 2526,2472 2526,2526 2472,2526 2472,2472 Z"/>
              <path fill="rgb(252,252,252)" stroke="none" d="M 2472,2472 L 2526,2472 2526,2526 2472,2526 2472,2472 Z M 2481,2481 L 2517,2481 2517,2517 2481,2517 2481,2481 Z"/>
              <path fill="rgb(253,253,253)" stroke="none" d="M 2481,2481 L 2517,2481 2517,2517 2481,2517 2481,2481 Z M 2490,2490 L 2508,2490 2508,2508 2490,2508 2490,2490 Z"/>
              <path fill="rgb(255,255,255)" stroke="none" d="M 2490,2490 L 2508,2490 2508,2508 2490,2508 2490,2490 Z"/>
             </g>
            </g>
           </pattern>
          </defs>
          <path style="fill:url(#pattern1)" d="M 0,0 L 4999,0 4999,4999 0,4999 0,0 Z"/>
         </g>
        </mask>
       </defs>
       <g style="mask:url(#mask1)">
        <path fill="rgb(255,255,255)" stroke="none" d="M 2500,4999 L 0,4999 0,0 4999,0 4999,4999 2500,4999 Z"/>
       </g>
      </g>
      <g class="com.sun.star.drawing.OpenBezierShape">
       <g id="id3">
        <rect class="BoundingBox" stroke="none" fill="none" x="808" y="-1" width="1819" height="4879"/>
        <defs>
         <mask id="mask2">
          <g>
           <defs>
            <linearGradient id="gradient1" x1="1717" y1="0" x2="1717" y2="4877" gradientUnits="userSpaceOnUse">
             <stop offset="0.5" style="stop-color:rgb(128,128,128)"/>
             <stop offset="0.5" style="stop-color:rgb(128,128,128)"/>
             <stop offset="1" style="stop-color:rgb(128,128,128)"/>
             <stop offset="1" style="stop-color:rgb(128,128,128)"/>
            </linearGradient>
           </defs>
           <path style="fill:url(#gradient1)" d="M 809,0 L 2625,0 2625,4877 809,4877 809,0 Z"/>
          </g>
         </mask>
        </defs>
        <g style="mask:url(#mask2)">
         <path fill="none" stroke="rgb(178,178,178)" stroke-width="159" stroke-linejoin="round" d="M 896,4797 C 885,4743 885,4684 899,4635 964,4391 1037,4145 1130,3916 1258,3605 1361,3276 1477,2957 1595,2633 1671,2284 1790,1963 1868,1756 1924,1529 2028,1343 2090,1233 2127,1111 2181,997 2212,930 2234,851 2254,777 2266,734 2274,688 2280,644 2287,599 2302,557 2309,514 2315,471 2329,431 2350,398 2377,353 2403,302 2434,264 2466,227 2487,180 2517,141 L 2536,106 2546,79"/>
        </g>
       </g>
      </g>
      <g class="com.sun.star.drawing.OpenBezierShape">
       <g id="id4">
        <rect class="BoundingBox" stroke="none" fill="none" x="2580" y="108" width="1571" height="4852"/>
        <defs>
         <mask id="mask3">
          <g>
           <defs>
            <linearGradient id="gradient2" x1="3365" y1="109" x2="3365" y2="4959" gradientUnits="userSpaceOnUse">
             <stop offset="0.5" style="stop-color:rgb(128,128,128)"/>
             <stop offset="0.5" style="stop-color:rgb(128,128,128)"/>
             <stop offset="1" style="stop-color:rgb(128,128,128)"/>
             <stop offset="1" style="stop-color:rgb(128,128,128)"/>
            </linearGradient>
           </defs>
           <path style="fill:url(#gradient2)" d="M 2581,109 L 4150,109 4150,4959 2581,4959 2581,109 Z"/>
          </g>
         </mask>
        </defs>
        <g style="mask:url(#mask3)">
         <path fill="none" stroke="rgb(178,178,178)" stroke-width="159" stroke-linejoin="round" d="M 2660,4879 C 2704,4666 2806,4493 2863,4290 2925,4076 3011,3868 3054,3645 3110,3353 3150,3053 3176,2754 3202,2455 3242,2156 3276,1861 3292,1720 3328,1580 3359,1445 3373,1385 3392,1327 3411,1271 3452,1154 3492,1034 3556,932 3597,868 3636,796 3674,730 3711,668 3753,612 3791,555 3823,507 3856,461 3888,414 3924,361 3961,307 4002,260 L 4031,226 4057,203 4070,188"/>
        </g>
       </g>
      </g>
      <g class="com.sun.star.drawing.OpenBezierShape">
       <g id="id5">
        <rect class="BoundingBox" stroke="none" fill="none" x="558" y="1124" width="3969" height="536"/>
        <defs>
         <mask id="mask4">
          <g>
           <defs>
            <linearGradient id="gradient3" x1="2542" y1="1124" x2="2542" y2="1658" gradientUnits="userSpaceOnUse">
             <stop offset="0.5" style="stop-color:rgb(128,128,128)"/>
             <stop offset="0.5" style="stop-color:rgb(128,128,128)"/>
             <stop offset="1" style="stop-color:rgb(128,128,128)"/>
             <stop offset="1" style="stop-color:rgb(128,128,128)"/>
            </linearGradient>
           </defs>
           <path style="fill:url(#gradient3)" d="M 559,1124 L 4526,1124 4526,1658 559,1658 559,1124 Z"/>
          </g>
         </mask>
        </defs>
        <g style="mask:url(#mask4)">
         <path fill="none" stroke="rgb(178,178,178)" stroke-width="159" stroke-linejoin="round" d="M 638,1205 C 759,1200 882,1212 1002,1237 1221,1281 1444,1269 1664,1289 2045,1322 2428,1345 2811,1371 3127,1392 3448,1393 3763,1455 3893,1481 4022,1517 4151,1556 4211,1573 4275,1572 4337,1579 L 4383,1573 4430,1569 4446,1566"/>
        </g>
       </g>
      </g>
      <g class="com.sun.star.drawing.OpenBezierShape">
       <g id="id6">
        <rect class="BoundingBox" stroke="none" fill="none" x="344" y="3240" width="4118" height="833"/>
        <defs>
         <mask id="mask5">
          <g>
           <defs>
            <linearGradient id="gradient4" x1="2402" y1="3241" x2="2402" y2="4071" gradientUnits="userSpaceOnUse">
             <stop offset="0.5" style="stop-color:rgb(128,128,128)"/>
             <stop offset="0.5" style="stop-color:rgb(128,128,128)"/>
             <stop offset="1" style="stop-color:rgb(128,128,128)"/>
             <stop offset="1" style="stop-color:rgb(128,128,128)"/>
            </linearGradient>
           </defs>
           <path style="fill:url(#gradient4)" d="M 344,3241 L 4460,3241 4460,4071 344,4071 344,3241 Z"/>
          </g>
         </mask>
        </defs>
        <g style="mask:url(#mask5)">
         <path fill="none" stroke="rgb(204,204,204)" stroke-width="159" stroke-linejoin="round" d="M 424,3321 C 507,3318 591,3326 674,3334 865,3352 1059,3383 1250,3410 1455,3441 1663,3457 1868,3495 2038,3528 2210,3556 2381,3584 2567,3615 2749,3690 2931,3749 3060,3792 3187,3855 3319,3883 3449,3911 3583,3937 3716,3951 3814,3963 3914,3946 4013,3964 4047,3972 4084,3969 4120,3972 4159,3976 4199,3990 4240,3992 4275,3995 4306,3962 4339,3944 L 4365,3940 4381,3934"/>
        </g>
       </g>
      </g>
      <g class="com.sun.star.drawing.OpenBezierShape">
       <g id="id7">
        <rect class="BoundingBox" stroke="none" fill="none" x="383" y="1479" width="732" height="1603"/>
        <defs>
         <mask id="mask6">
          <g>
           <defs>
            <linearGradient id="gradient5" x1="748" y1="1479" x2="748" y2="3081" gradientUnits="userSpaceOnUse">
             <stop offset="0.5" style="stop-color:rgb(77,77,77)"/>
             <stop offset="0.5" style="stop-color:rgb(77,77,77)"/>
             <stop offset="1" style="stop-color:rgb(77,77,77)"/>
             <stop offset="1" style="stop-color:rgb(77,77,77)"/>
            </linearGradient>
           </defs>
           <path style="fill:url(#gradient5)" d="M 384,1479 L 1113,1479 1113,3081 384,3081 384,1479 Z"/>
          </g>
         </mask>
        </defs>
        <g style="mask:url(#mask6)">
         <path fill="none" stroke="rgb(129,212,26)" stroke-width="159" stroke-linejoin="round" d="M 463,1559 C 517,1634 588,1685 646,1754 696,1816 755,1871 802,1940 825,1974 833,2023 844,2066 859,2129 865,2197 883,2261 894,2303 895,2350 898,2395 901,2444 916,2496 919,2546 921,2593 930,2639 947,2679 967,2723 980,2771 990,2820 1000,2866 1016,2909 1026,2957 L 1034,2991 1034,3001"/>
        </g>
       </g>
      </g>
      <g class="com.sun.star.drawing.OpenBezierShape">
       <g id="id8">
        <rect class="BoundingBox" stroke="none" fill="none" x="289" y="1427" width="1341" height="1422"/>
        <defs>
         <mask id="mask7">
          <g>
           <defs>
            <linearGradient id="gradient6" x1="959" y1="1428" x2="959" y2="2848" gradientUnits="userSpaceOnUse">
             <stop offset="0.5" style="stop-color:rgb(77,77,77)"/>
             <stop offset="0.5" style="stop-color:rgb(77,77,77)"/>
             <stop offset="1" style="stop-color:rgb(77,77,77)"/>
             <stop offset="1" style="stop-color:rgb(77,77,77)"/>
            </linearGradient>
           </defs>
           <path style="fill:url(#gradient6)" d="M 290,1428 L 1629,1428 1629,2848 290,2848 290,1428 Z"/>
          </g>
         </mask>
        </defs>
        <g style="mask:url(#mask7)">
         <path fill="none" stroke="rgb(129,212,26)" stroke-width="159" stroke-linejoin="round" d="M 369,2768 C 417,2692 467,2619 523,2556 590,2480 636,2380 706,2305 776,2231 836,2137 909,2066 1005,1975 1091,1861 1196,1784 1246,1748 1298,1712 1346,1668 1386,1633 1430,1597 1474,1569 L 1516,1532 1544,1512 1549,1507"/>
        </g>
       </g>
      </g>
      <g class="com.sun.star.drawing.OpenBezierShape">
       <g id="id9">
        <rect class="BoundingBox" stroke="none" fill="none" x="1936" y="1811" width="982" height="1319"/>
        <defs>
         <mask id="mask8">
          <g>
           <defs>
            <linearGradient id="gradient7" x1="2426" y1="1811" x2="2426" y2="3129" gradientUnits="userSpaceOnUse">
             <stop offset="0.5" style="stop-color:rgb(77,77,77)"/>
             <stop offset="0.5" style="stop-color:rgb(77,77,77)"/>
             <stop offset="1" style="stop-color:rgb(77,77,77)"/>
             <stop offset="1" style="stop-color:rgb(77,77,77)"/>
            </linearGradient>
           </defs>
           <path style="fill:url(#gradient7)" d="M 1937,1811 L 2916,1811 2916,3129 1937,3129 1937,1811 Z"/>
          </g>
         </mask>
        </defs>
        <g style="mask:url(#mask8)">
         <path fill="none" stroke="rgb(52,101,164)" stroke-width="159" stroke-linejoin="round" d="M 2756,1974 C 2647,1918 2530,1887 2413,1891 2365,1893 2342,1960 2312,1997 2263,2058 2239,2141 2212,2217 2165,2346 2103,2471 2063,2608 2050,2654 2019,2690 2016,2742 2015,2783 2024,2825 2056,2854 2096,2890 2140,2921 2184,2954 2229,2987 2279,3010 2329,3026 2366,3038 2406,3052 2447,3049 2483,3046 2521,3055 2559,3039 2605,3019 2653,2989 2692,2950 2739,2902 2770,2829 2788,2759 2812,2667 2833,2568 2833,2470 2833,2424 2832,2380 2833,2336 2834,2275 2840,2211 2835,2153 2832,2104 2822,2048 2790,2012 2761,1977 2726,1966 2694,1943 L 2686,1940"/>
        </g>
       </g>
      </g>
      <g class="com.sun.star.drawing.OpenBezierShape">
       <g id="id10">
        <rect class="BoundingBox" stroke="none" fill="none" x="3282" y="2099" width="997" height="1013"/>
        <defs>
         <mask id="mask9">
          <g>
           <defs>
            <linearGradient id="gradient8" x1="3780" y1="2100" x2="3780" y2="3111" gradientUnits="userSpaceOnUse">
             <stop offset="0.5" style="stop-color:rgb(77,77,77)"/>
             <stop offset="0.5" style="stop-color:rgb(77,77,77)"/>
             <stop offset="1" style="stop-color:rgb(77,77,77)"/>
             <stop offset="1" style="stop-color:rgb(77,77,77)"/>
            </linearGradient>
           </defs>
           <path style="fill:url(#gradient8)" d="M 3282,2100 L 4278,2100 4278,3111 3282,3111 3282,2100 Z"/>
          </g>
         </mask>
        </defs>
        <g style="mask:url(#mask9)">
         <path fill="none" stroke="rgb(129,212,26)" stroke-width="159" stroke-linejoin="round" d="M 4198,2179 C 4139,2276 4044,2307 3982,2398 3913,2498 3811,2553 3729,2635 3660,2704 3578,2754 3515,2830 3486,2865 3447,2888 3430,2937 L 3403,2960 3375,2998 3362,3031"/>
        </g>
       </g>
      </g>
      <g class="com.sun.star.drawing.OpenBezierShape">
       <g id="id11">
        <rect class="BoundingBox" stroke="none" fill="none" x="3508" y="1993" width="727" height="1342"/>
        <defs>
         <mask id="mask10">
          <g>
           <defs>
            <linearGradient id="gradient9" x1="3871" y1="1994" x2="3871" y2="3334" gradientUnits="userSpaceOnUse">
             <stop offset="0.5" style="stop-color:rgb(77,77,77)"/>
             <stop offset="0.5" style="stop-color:rgb(77,77,77)"/>
             <stop offset="1" style="stop-color:rgb(77,77,77)"/>
             <stop offset="1" style="stop-color:rgb(77,77,77)"/>
            </linearGradient>
           </defs>
           <path style="fill:url(#gradient9)" d="M 3509,1994 L 4234,1994 4234,3334 3509,3334 3509,1994 Z"/>
          </g>
         </mask>
        </defs>
        <g style="mask:url(#mask10)">
         <path fill="none" stroke="rgb(129,212,26)" stroke-width="159" stroke-linejoin="round" d="M 3588,2073 C 3594,2142 3627,2201 3646,2264 3693,2418 3766,2559 3844,2689 3902,2787 3939,2898 3985,3004 4007,3054 4026,3110 4049,3162 4071,3214 4115,3215 4149,3244 L 4154,3254"/>
        </g>
       </g>
      </g>
      <g class="com.sun.star.drawing.OpenBezierShape">
       <g id="id12">
        <rect class="BoundingBox" stroke="none" fill="none" x="223" y="3470" width="791" height="1095"/>
        <defs>
         <mask id="mask11">
          <g>
           <defs>
            <linearGradient id="gradient10" x1="618" y1="3471" x2="618" y2="4564" gradientUnits="userSpaceOnUse">
             <stop offset="0.5" style="stop-color:rgb(77,77,77)"/>
             <stop offset="0.5" style="stop-color:rgb(77,77,77)"/>
             <stop offset="1" style="stop-color:rgb(77,77,77)"/>
             <stop offset="1" style="stop-color:rgb(77,77,77)"/>
            </linearGradient>
           </defs>
           <path style="fill:url(#gradient10)" d="M 223,3471 L 1013,3471 1013,4564 223,4564 223,3471 Z"/>
          </g>
         </mask>
        </defs>
        <g style="mask:url(#mask11)">
         <path fill="none" stroke="rgb(52,101,164)" stroke-width="159" stroke-linejoin="round" d="M 669,3635 C 569,3530 497,3632 429,3699 379,3748 343,3819 320,3892 297,3959 299,4037 312,4107 323,4168 342,4224 361,4283 380,4340 395,4393 442,4436 475,4467 506,4481 541,4481 592,4482 643,4491 695,4471 740,4454 784,4418 821,4372 848,4336 870,4290 890,4248 913,4201 918,4139 927,4084 933,4034 936,3980 930,3929 922,3873 918,3820 904,3766 888,3714 871,3661 843,3625 816,3590 775,3585 742,3563 709,3541 671,3551 638,3560 598,3570 558,3564 520,3580 L 494,3597 489,3600"/>
        </g>
       </g>
      </g>
      <g class="com.sun.star.drawing.OpenBezierShape">
       <g id="id13">
        <rect class="BoundingBox" stroke="none" fill="none" x="3922" y="160" width="930" height="1206"/>
        <defs>
         <mask id="mask12">
          <g>
           <defs>
            <linearGradient id="gradient11" x1="4386" y1="160" x2="4386" y2="1365" gradientUnits="userSpaceOnUse">
             <stop offset="0.5" style="stop-color:rgb(77,77,77)"/>
             <stop offset="0.5" style="stop-color:rgb(77,77,77)"/>
             <stop offset="1" style="stop-color:rgb(77,77,77)"/>
             <stop offset="1" style="stop-color:rgb(77,77,77)"/>
            </linearGradient>
           </defs>
           <path style="fill:url(#gradient11)" d="M 3923,160 L 4850,160 4850,1365 3923,1365 3923,160 Z"/>
          </g>
         </mask>
        </defs>
        <g style="mask:url(#mask12)">
         <path fill="none" stroke="rgb(52,101,164)" stroke-width="159" stroke-linejoin="round" d="M 4528,257 C 4456,412 4247,356 4149,494 4117,542 4072,580 4055,641 4037,717 4023,799 4008,878 3997,940 4002,1007 4019,1069 4033,1119 4059,1164 4093,1192 4147,1237 4216,1248 4277,1264 4337,1280 4402,1294 4462,1279 4519,1264 4563,1198 4603,1145 4651,1083 4706,1021 4731,940 4748,888 4775,828 4770,767 4766,707 4780,642 4752,586 4721,522 4682,460 4637,411 4606,376 4566,363 4535,336 4489,295 4435,282 4387,250 L 4360,240 4326,264 4311,282"/>
        </g>
       </g>
      </g>
      <g class="com.sun.star.drawing.OpenBezierShape">
       <g id="id14">
        <rect class="BoundingBox" stroke="none" fill="none" x="99" y="201" width="4861" height="4470"/>
        <defs>
         <mask id="mask13">
          <g>
           <defs>
            <linearGradient id="gradient12" x1="2529" y1="202" x2="2529" y2="4670" gradientUnits="userSpaceOnUse">
             <stop offset="0.5" style="stop-color:rgb(102,102,102)"/>
             <stop offset="0.5" style="stop-color:rgb(102,102,102)"/>
             <stop offset="1" style="stop-color:rgb(102,102,102)"/>
             <stop offset="1" style="stop-color:rgb(102,102,102)"/>
            </linearGradient>
           </defs>
           <path style="fill:url(#gradient12)" d="M 100,202 L 4958,202 4958,4670 100,4670 100,202 Z"/>
          </g>
         </mask>
        </defs>
        <g style="mask:url(#mask13)">
         <path fill="none" stroke="rgb(0,0,0)" stroke-width="159" stroke-linejoin="round" d="M 179,4590 C 299,4362 457,4189 611,4016 749,3860 884,3695 1029,3552 1159,3423 1278,3263 1416,3147 1540,3043 1658,2925 1787,2835 1893,2759 1988,2657 2096,2594 2178,2546 2254,2475 2331,2415 2408,2354 2490,2297 2561,2218 2590,2186 2624,2159 2660,2138 2729,2096 2794,2041 2866,2002 2978,1939 3083,1839 3192,1766 3277,1709 3365,1653 3449,1591 3540,1525 3629,1446 3722,1384 3839,1307 3936,1181 4042,1082 4101,1027 4156,958 4216,903 4263,861 4313,823 4360,778 4414,727 4464,660 4521,618 4561,585 4605,554 4645,521 4707,470 4762,403 4821,344 L 4852,309 4879,281"/>
        </g>
       </g>
      </g>
     </g>
    </g>
   </g>
  </g>
 </g>
</svg>